<svg width="1160" height="65" viewBox="0 0 1160 65" fill="none" xmlns="http://www.w3.org/2000/svg">
<rect x="960" width="200" height="65" rx="10" fill="url(#paint0_linear_72_53)"/>
<path d="M1045.05 26.8C1045.16 26.8 1045.26 26.8427 1045.35 26.928C1045.44 27.0133 1045.48 27.1147 1045.48 27.232V37.568C1045.48 37.6853 1045.44 37.7867 1045.35 37.872C1045.26 37.9573 1045.16 38 1045.05 38H1043.75C1043.63 38 1043.53 37.9573 1043.45 37.872C1043.36 37.7867 1043.32 37.6853 1043.32 37.568V33.344H1038.49V37.568C1038.49 37.6853 1038.44 37.7867 1038.36 37.872C1038.27 37.9573 1038.17 38 1038.05 38H1036.76C1036.64 38 1036.54 37.9627 1036.45 37.888C1036.37 37.8027 1036.33 37.696 1036.33 37.568V27.232C1036.33 27.1147 1036.37 27.0133 1036.45 26.928C1036.54 26.8427 1036.64 26.8 1036.76 26.8H1038.05C1038.17 26.8 1038.27 26.8427 1038.36 26.928C1038.44 27.0133 1038.49 27.1147 1038.49 27.232V31.344H1043.32V27.232C1043.32 27.1147 1043.36 27.0133 1043.45 26.928C1043.53 26.8427 1043.63 26.8 1043.75 26.8H1045.05ZM1047.81 31.728C1047.85 31.504 1047.95 31.264 1048.09 31.008C1048.25 30.752 1048.47 30.512 1048.75 30.288C1049.04 30.064 1049.39 29.8827 1049.79 29.744C1050.21 29.5947 1050.69 29.52 1051.23 29.52C1051.77 29.52 1052.27 29.5947 1052.7 29.744C1053.14 29.8827 1053.51 30.0907 1053.82 30.368C1054.14 30.6453 1054.39 30.9973 1054.56 31.424C1054.73 31.84 1054.81 32.32 1054.81 32.864V37.568C1054.81 37.6853 1054.77 37.7867 1054.69 37.872C1054.6 37.9573 1054.5 38 1054.38 38H1053.17C1053.05 38 1052.95 37.9573 1052.86 37.872C1052.78 37.7867 1052.73 37.6853 1052.73 37.568V37.04C1052.51 37.3493 1052.19 37.616 1051.76 37.84C1051.34 38.0533 1050.81 38.16 1050.16 38.16C1049.7 38.16 1049.29 38.1013 1048.93 37.984C1048.56 37.856 1048.26 37.68 1048.01 37.456C1047.77 37.232 1047.58 36.9707 1047.44 36.672C1047.31 36.3627 1047.25 36.0267 1047.25 35.664C1047.25 34.928 1047.51 34.352 1048.03 33.936C1048.55 33.52 1049.25 33.2373 1050.13 33.088L1052.73 32.64C1052.73 32.2027 1052.59 31.8933 1052.3 31.712C1052.01 31.5307 1051.66 31.44 1051.23 31.44C1050.96 31.44 1050.76 31.4773 1050.61 31.552C1050.46 31.6267 1050.31 31.728 1050.17 31.856C1050.08 31.9413 1049.99 32 1049.9 32.032C1049.83 32.064 1049.74 32.08 1049.65 32.08H1048.16C1048.05 32.08 1047.96 32.048 1047.89 31.984C1047.81 31.92 1047.79 31.8347 1047.81 31.728ZM1050.48 36.24C1050.84 36.24 1051.16 36.192 1051.44 36.096C1051.73 35.9893 1051.97 35.8507 1052.16 35.68C1052.35 35.5093 1052.49 35.3173 1052.59 35.104C1052.69 34.8907 1052.73 34.672 1052.73 34.448V34.288L1050.56 34.672C1050.12 34.7467 1049.81 34.8587 1049.61 35.008C1049.42 35.1467 1049.33 35.3387 1049.33 35.584C1049.33 35.808 1049.44 35.9733 1049.66 36.08C1049.9 36.1867 1050.17 36.24 1050.48 36.24ZM1063.28 38C1063.17 38 1063.07 37.9573 1062.98 37.872C1062.89 37.7867 1062.85 37.6853 1062.85 37.568V33.088L1058.96 37.824C1058.87 37.9413 1058.75 38 1058.6 38H1057.38C1057.26 38 1057.16 37.9573 1057.08 37.872C1056.99 37.7867 1056.95 37.6853 1056.95 37.568V30.112C1056.95 29.9947 1056.99 29.8933 1057.08 29.808C1057.16 29.7227 1057.26 29.68 1057.38 29.68H1058.6C1058.71 29.68 1058.81 29.7227 1058.9 29.808C1058.99 29.8933 1059.03 29.9947 1059.03 30.112V34.624L1062.92 29.856C1063.01 29.7387 1063.13 29.68 1063.28 29.68H1064.5C1064.62 29.68 1064.72 29.7227 1064.8 29.808C1064.89 29.8933 1064.93 29.9947 1064.93 30.112V37.568C1064.93 37.6853 1064.89 37.7867 1064.8 37.872C1064.72 37.9573 1064.62 38 1064.5 38H1063.28ZM1060.93 28.56C1060.48 28.56 1060.11 28.496 1059.81 28.368C1059.51 28.2293 1059.27 28.0587 1059.09 27.856C1058.92 27.6427 1058.8 27.408 1058.72 27.152C1058.66 26.896 1058.63 26.64 1058.63 26.384C1058.63 26.2987 1058.65 26.2293 1058.71 26.176C1058.76 26.112 1058.84 26.08 1058.93 26.08H1059.84C1059.94 26.08 1060.01 26.112 1060.07 26.176C1060.12 26.2293 1060.15 26.2987 1060.15 26.384C1060.15 26.6187 1060.21 26.8107 1060.32 26.96C1060.44 27.1093 1060.64 27.184 1060.93 27.184C1061.22 27.184 1061.42 27.1093 1061.54 26.96C1061.66 26.8107 1061.72 26.6187 1061.72 26.384C1061.72 26.2987 1061.74 26.2293 1061.8 26.176C1061.85 26.112 1061.92 26.08 1062.02 26.08H1062.93C1063.03 26.08 1063.1 26.112 1063.16 26.176C1063.21 26.2293 1063.24 26.2987 1063.24 26.384C1063.24 26.64 1063.2 26.896 1063.12 27.152C1063.06 27.408 1062.94 27.6427 1062.76 27.856C1062.59 28.0587 1062.35 28.2293 1062.05 28.368C1061.75 28.496 1061.38 28.56 1060.93 28.56ZM1074.05 29.68C1074.16 29.68 1074.27 29.7227 1074.35 29.808C1074.44 29.8933 1074.48 29.9947 1074.48 30.112V31.168C1074.48 31.2853 1074.44 31.3867 1074.35 31.472C1074.27 31.5573 1074.16 31.6 1074.05 31.6H1071.42V37.568C1071.42 37.6853 1071.38 37.7867 1071.3 37.872C1071.21 37.9573 1071.11 38 1070.99 38H1069.78C1069.66 38 1069.56 37.9573 1069.47 37.872C1069.39 37.7867 1069.34 37.6853 1069.34 37.568V31.6H1066.72C1066.6 31.6 1066.5 31.5573 1066.42 31.472C1066.33 31.3867 1066.29 31.2853 1066.29 31.168V30.112C1066.29 29.9947 1066.33 29.8933 1066.42 29.808C1066.5 29.7227 1066.6 29.68 1066.72 29.68H1074.05ZM1082.17 38C1082.06 38 1081.96 37.9573 1081.87 37.872C1081.79 37.7867 1081.74 37.6853 1081.74 37.568V33.088L1077.85 37.824C1077.76 37.9413 1077.64 38 1077.49 38H1076.27C1076.15 38 1076.05 37.9573 1075.97 37.872C1075.88 37.7867 1075.84 37.6853 1075.84 37.568V30.112C1075.84 29.9947 1075.88 29.8933 1075.97 29.808C1076.05 29.7227 1076.15 29.68 1076.27 29.68H1077.49C1077.6 29.68 1077.71 29.7227 1077.79 29.808C1077.88 29.8933 1077.92 29.9947 1077.92 30.112V34.624L1081.81 29.856C1081.9 29.7387 1082.03 29.68 1082.17 29.68H1083.39C1083.51 29.68 1083.61 29.7227 1083.69 29.808C1083.78 29.8933 1083.82 29.9947 1083.82 30.112V37.568C1083.82 37.6853 1083.78 37.7867 1083.69 37.872C1083.61 37.9573 1083.51 38 1083.39 38H1082.17Z" fill="#0B0A3E"/>
<path d="M929 10C929 5.02944 924.971 1 920 1H561V64H920C924.971 64 929 59.9706 929 55V10Z" fill="white" stroke="#00D1FF" stroke-width="2"/>
<path d="M625.904 32.728C626.224 32.472 626.427 32.2107 626.512 31.944C626.608 31.6773 626.656 31.432 626.656 31.208C626.656 30.7707 626.523 30.4027 626.256 30.104C625.989 29.7947 625.547 29.64 624.928 29.64C624.341 29.64 623.909 29.784 623.632 30.072C623.365 30.36 623.173 30.728 623.056 31.176C623.024 31.3147 622.96 31.4213 622.864 31.496C622.768 31.56 622.672 31.592 622.576 31.592H621.312C621.195 31.592 621.088 31.5547 620.992 31.48C620.907 31.3947 620.869 31.288 620.88 31.16C620.912 30.68 621.035 30.2267 621.248 29.8C621.461 29.3733 621.744 29 622.096 28.68C622.459 28.36 622.88 28.1093 623.36 27.928C623.84 27.736 624.357 27.64 624.912 27.64C625.584 27.64 626.165 27.752 626.656 27.976C627.147 28.1893 627.552 28.472 627.872 28.824C628.192 29.1653 628.427 29.5493 628.576 29.976C628.736 30.392 628.816 30.808 628.816 31.224C628.816 31.4907 628.8 31.7467 628.768 31.992C628.736 32.2267 628.661 32.4667 628.544 32.712C628.427 32.9467 628.256 33.1973 628.032 33.464C627.808 33.72 627.509 33.9973 627.136 34.296L624.176 37H628.624C628.741 37 628.843 37.0427 628.928 37.128C629.013 37.2133 629.056 37.3147 629.056 37.432V38.568C629.056 38.6853 629.013 38.7867 628.928 38.872C628.843 38.9573 628.741 39 628.624 39H621.152C621.035 39 620.933 38.9573 620.848 38.872C620.763 38.7867 620.72 38.6853 620.72 38.568V37.592C620.72 37.4107 620.773 37.256 620.88 37.128C620.987 36.9893 621.077 36.8933 621.152 36.84L625.904 32.728ZM640.03 33.192C640.03 32.9467 639.955 32.7813 639.806 32.696C639.656 32.6 639.406 32.552 639.054 32.552H636.622V33.832H639.054C639.406 33.832 639.656 33.7893 639.806 33.704C639.955 33.608 640.03 33.4373 640.03 33.192ZM636.622 37.128H639.15C639.502 37.128 639.763 37.08 639.934 36.984C640.104 36.8773 640.19 36.6907 640.19 36.424C640.19 36.1573 640.104 35.9707 639.934 35.864C639.763 35.7573 639.502 35.704 639.15 35.704H636.622V37.128ZM634.862 39C634.776 39 634.702 38.968 634.638 38.904C634.574 38.84 634.542 38.7653 634.542 38.68V31C634.542 30.9147 634.574 30.84 634.638 30.776C634.702 30.712 634.776 30.68 634.862 30.68H639.358C639.763 30.68 640.136 30.7387 640.478 30.856C640.819 30.9627 641.107 31.1173 641.342 31.32C641.587 31.512 641.774 31.752 641.902 32.04C642.04 32.3173 642.11 32.6267 642.11 32.968C642.11 33.4267 642.035 33.784 641.885 34.04C641.736 34.296 641.544 34.504 641.31 34.664C641.672 34.888 641.923 35.16 642.062 35.48C642.2 35.8 642.27 36.168 642.27 36.584C642.27 36.9787 642.2 37.3307 642.062 37.64C641.934 37.9387 641.752 38.1893 641.517 38.392C641.283 38.5947 641.006 38.7493 640.686 38.856C640.366 38.952 640.014 39 639.63 39H634.862ZM643.607 36.92C643.596 36.8027 643.634 36.7013 643.719 36.616C643.815 36.5307 643.922 36.488 644.039 36.488H645.255C645.372 36.488 645.468 36.5413 645.543 36.648C645.618 36.7547 645.698 36.8453 645.783 36.92C645.922 37.0373 646.092 37.1227 646.295 37.176C646.498 37.2187 646.818 37.24 647.255 37.24C647.852 37.24 648.263 37.1707 648.487 37.032C648.722 36.8933 648.839 36.7227 648.839 36.52C648.839 36.3387 648.732 36.1733 648.519 36.024C648.306 35.864 647.938 35.784 647.415 35.784H647.255H646.535C646.418 35.784 646.316 35.7413 646.231 35.656C646.146 35.5707 646.103 35.4693 646.103 35.352V34.296C646.103 34.1787 646.146 34.0773 646.231 33.992C646.316 33.9067 646.418 33.864 646.535 33.864H647.255C647.81 33.864 648.183 33.7947 648.375 33.656C648.578 33.5067 648.679 33.336 648.679 33.144C648.679 32.952 648.562 32.7867 648.327 32.648C648.092 32.5093 647.735 32.44 647.255 32.44C646.892 32.44 646.61 32.4773 646.407 32.552C646.215 32.6267 646.055 32.7227 645.927 32.84C645.842 32.9253 645.762 33.0213 645.687 33.128C645.612 33.224 645.516 33.272 645.399 33.272H644.183C644.066 33.272 643.959 33.2293 643.863 33.144C643.778 33.0587 643.74 32.9573 643.751 32.84C643.762 32.616 643.836 32.3707 643.975 32.104C644.124 31.8267 644.343 31.5707 644.631 31.336C644.919 31.1013 645.276 30.9093 645.703 30.76C646.14 30.6 646.658 30.52 647.255 30.52C647.863 30.52 648.386 30.5893 648.823 30.728C649.26 30.8667 649.623 31.0587 649.911 31.304C650.199 31.5387 650.412 31.816 650.551 32.136C650.69 32.456 650.759 32.7973 650.759 33.16C650.759 33.4693 650.711 33.7627 650.615 34.04C650.519 34.3067 650.37 34.552 650.167 34.776C650.412 35.0107 650.599 35.2773 650.727 35.576C650.855 35.8747 650.919 36.1893 650.919 36.52C650.919 36.8827 650.844 37.224 650.695 37.544C650.556 37.864 650.332 38.1467 650.023 38.392C649.724 38.6267 649.346 38.8133 648.887 38.952C648.428 39.0907 647.884 39.16 647.255 39.16C646.626 39.16 646.082 39.0853 645.623 38.936C645.175 38.7867 644.802 38.6 644.503 38.376C644.204 38.152 643.98 37.912 643.831 37.656C643.692 37.3893 643.618 37.144 643.607 36.92ZM657.256 39.16C656.926 39.16 656.627 39.128 656.36 39.064C656.104 39 655.875 38.92 655.672 38.824C655.48 38.728 655.315 38.6267 655.176 38.52C655.038 38.4027 654.926 38.296 654.84 38.2V41.608C654.84 41.7253 654.798 41.8267 654.712 41.912C654.627 41.9973 654.526 42.04 654.408 42.04H653.192C653.075 42.04 652.974 41.9973 652.888 41.912C652.803 41.8267 652.76 41.7253 652.76 41.608V31.112C652.76 30.9947 652.803 30.8933 652.888 30.808C652.974 30.7227 653.075 30.68 653.192 30.68H654.408C654.526 30.68 654.627 30.7227 654.712 30.808C654.798 30.8933 654.84 30.9947 654.84 31.112V31.48C654.926 31.384 655.038 31.2827 655.176 31.176C655.315 31.0587 655.48 30.952 655.672 30.856C655.875 30.76 656.104 30.68 656.36 30.616C656.627 30.552 656.926 30.52 657.256 30.52C657.79 30.52 658.27 30.6267 658.696 30.84C659.134 31.0427 659.502 31.32 659.8 31.672C660.11 32.0133 660.35 32.4133 660.52 32.872C660.702 33.32 660.803 33.7893 660.824 34.28C660.835 34.44 660.84 34.6267 660.84 34.84C660.84 35.0533 660.835 35.24 660.824 35.4C660.803 35.8907 660.702 36.3653 660.52 36.824C660.35 37.272 660.11 37.672 659.8 38.024C659.502 38.3653 659.134 38.6427 658.696 38.856C658.27 39.0587 657.79 39.16 657.256 39.16ZM658.744 35.288C658.776 34.9893 658.776 34.6907 658.744 34.392C658.68 33.6987 658.467 33.2027 658.104 32.904C657.742 32.5947 657.299 32.44 656.776 32.44C656.254 32.44 655.811 32.5947 655.448 32.904C655.096 33.2133 654.894 33.656 654.84 34.232C654.819 34.392 654.808 34.5947 654.808 34.84C654.808 35.0853 654.819 35.288 654.84 35.448C654.894 36.0027 655.096 36.44 655.448 36.76C655.811 37.08 656.254 37.24 656.776 37.24C657.299 37.24 657.742 37.0907 658.104 36.792C658.467 36.4827 658.68 35.9813 658.744 35.288ZM666.331 30.52C666.917 30.52 667.445 30.6107 667.915 30.792C668.395 30.9733 668.805 31.224 669.147 31.544C669.499 31.864 669.776 32.2373 669.979 32.664C670.192 33.0907 670.315 33.5493 670.347 34.04C670.357 34.136 670.363 34.2587 670.363 34.408C670.363 34.5573 670.363 34.7067 670.363 34.856C670.363 35.0053 670.363 35.1547 670.363 35.304C670.363 35.4427 670.357 35.56 670.347 35.656C670.304 36.1467 670.181 36.6053 669.979 37.032C669.776 37.4587 669.499 37.832 669.147 38.152C668.805 38.4613 668.395 38.7067 667.915 38.888C667.445 39.0693 666.917 39.16 666.331 39.16C665.744 39.16 665.211 39.0693 664.731 38.888C664.261 38.7067 663.851 38.4613 663.499 38.152C663.157 37.832 662.885 37.4587 662.683 37.032C662.48 36.6053 662.357 36.1467 662.315 35.656C662.304 35.56 662.293 35.4427 662.283 35.304C662.283 35.1547 662.283 35.0053 662.283 34.856C662.283 34.7067 662.283 34.5573 662.283 34.408C662.293 34.2587 662.304 34.136 662.315 34.04C662.347 33.5493 662.464 33.0907 662.667 32.664C662.88 32.2373 663.157 31.864 663.499 31.544C663.851 31.224 664.261 30.9733 664.731 30.792C665.211 30.6107 665.744 30.52 666.331 30.52ZM668.267 34.12C668.235 33.7893 668.155 33.5173 668.027 33.304C667.909 33.08 667.76 32.904 667.579 32.776C667.397 32.648 667.2 32.5627 666.987 32.52C666.773 32.4667 666.555 32.44 666.331 32.44C666.107 32.44 665.888 32.4667 665.674 32.52C665.461 32.5627 665.264 32.648 665.083 32.776C664.901 32.904 664.747 33.08 664.619 33.304C664.501 33.5173 664.427 33.7893 664.395 34.12C664.384 34.2053 664.373 34.312 664.363 34.44C664.363 34.568 664.363 34.7013 664.363 34.84C664.363 34.9787 664.363 35.1173 664.363 35.256C664.373 35.384 664.384 35.4853 664.395 35.56C664.427 35.8907 664.501 36.168 664.619 36.392C664.747 36.6053 664.901 36.776 665.083 36.904C665.264 37.032 665.461 37.1227 665.674 37.176C665.888 37.2187 666.107 37.24 666.331 37.24C666.555 37.24 666.773 37.2187 666.987 37.176C667.2 37.1227 667.397 37.032 667.579 36.904C667.76 36.776 667.909 36.6053 668.027 36.392C668.155 36.168 668.235 35.8907 668.267 35.56C668.277 35.4853 668.283 35.384 668.283 35.256C668.283 35.1173 668.283 34.9787 668.283 34.84C668.283 34.7013 668.283 34.568 668.283 34.44C668.283 34.312 668.277 34.2053 668.267 34.12ZM673.862 34.28C673.841 34.44 673.83 34.6267 673.83 34.84C673.83 35.0533 673.841 35.24 673.862 35.4C673.894 35.7307 673.969 36.0133 674.086 36.248C674.203 36.4827 674.347 36.6747 674.518 36.824C674.699 36.9627 674.897 37.0693 675.11 37.144C675.323 37.208 675.542 37.24 675.766 37.24C676.033 37.24 676.257 37.2187 676.438 37.176C676.619 37.1333 676.774 37.0747 676.902 37C677.03 36.9147 677.137 36.824 677.222 36.728C677.318 36.6213 677.409 36.504 677.494 36.376C677.558 36.28 677.633 36.184 677.718 36.088C677.803 35.992 677.905 35.944 678.022 35.944H679.238C679.355 35.944 679.457 35.9867 679.542 36.072C679.638 36.1573 679.681 36.2587 679.67 36.376C679.659 36.6 679.579 36.872 679.43 37.192C679.281 37.512 679.046 37.8213 678.726 38.12C678.417 38.408 678.017 38.6533 677.526 38.856C677.035 39.0587 676.449 39.16 675.766 39.16C675.179 39.16 674.651 39.064 674.182 38.872C673.713 38.6693 673.302 38.4027 672.95 38.072C672.609 37.7307 672.337 37.3413 672.134 36.904C671.942 36.456 671.825 35.9867 671.782 35.496C671.761 35.304 671.75 35.0907 671.75 34.856C671.75 34.6213 671.761 34.4027 671.782 34.2C671.814 33.7093 671.931 33.24 672.134 32.792C672.337 32.344 672.609 31.9547 672.95 31.624C673.291 31.2827 673.697 31.016 674.166 30.824C674.646 30.6213 675.179 30.52 675.766 30.52C676.449 30.52 677.035 30.6213 677.526 30.824C678.017 31.0267 678.417 31.2773 678.726 31.576C679.046 31.864 679.281 32.168 679.43 32.488C679.579 32.808 679.659 33.08 679.67 33.304C679.681 33.4213 679.638 33.5227 679.542 33.608C679.457 33.6933 679.355 33.736 679.238 33.736H678.022C677.905 33.736 677.803 33.688 677.718 33.592C677.633 33.496 677.558 33.4 677.494 33.304C677.409 33.176 677.318 33.064 677.222 32.968C677.137 32.8613 677.03 32.7707 676.902 32.696C676.774 32.6107 676.619 32.5467 676.438 32.504C676.257 32.4613 676.033 32.44 675.766 32.44C675.542 32.44 675.323 32.4773 675.11 32.552C674.897 32.616 674.699 32.7227 674.518 32.872C674.347 33.0107 674.203 33.1973 674.086 33.432C673.969 33.6667 673.894 33.9493 673.862 34.28ZM684.409 32.6V36.056C684.409 37.0267 684.163 37.7893 683.673 38.344C683.193 38.888 682.435 39.16 681.401 39.16H681.033C680.915 39.16 680.814 39.1173 680.729 39.032C680.643 38.9467 680.601 38.8453 680.601 38.728V37.672C680.601 37.5547 680.643 37.4533 680.729 37.368C680.814 37.2827 680.915 37.24 681.033 37.24H681.321C681.747 37.24 682.019 37.1333 682.137 36.92C682.265 36.696 682.329 36.3813 682.329 35.976V31.112C682.329 30.9947 682.371 30.8933 682.457 30.808C682.542 30.7227 682.643 30.68 682.761 30.68H688.633C688.75 30.68 688.851 30.7227 688.937 30.808C689.022 30.8933 689.065 30.9947 689.065 31.112V38.568C689.065 38.6853 689.022 38.7867 688.937 38.872C688.851 38.9573 688.75 39 688.633 39H687.417C687.299 39 687.198 38.9573 687.113 38.872C687.027 38.7867 686.985 38.6853 686.985 38.568V32.6H684.409ZM699.356 31.112C699.356 30.9947 699.399 30.8933 699.484 30.808C699.569 30.7227 699.671 30.68 699.788 30.68H701.004C701.121 30.68 701.223 30.7227 701.308 30.808C701.393 30.8933 701.436 30.9947 701.436 31.112V38.568C701.436 38.6853 701.393 38.7867 701.308 38.872C701.223 38.9573 701.121 39 701.004 39H699.788C699.671 39 699.569 38.9573 699.484 38.872C699.399 38.7867 699.356 38.6853 699.356 38.568V31.112ZM698.556 35.768C698.556 36.248 698.465 36.6907 698.284 37.096C698.113 37.4907 697.873 37.832 697.564 38.12C697.255 38.3973 696.881 38.616 696.444 38.776C696.007 38.9253 695.527 39 695.004 39H691.708C691.591 39 691.489 38.9573 691.404 38.872C691.319 38.7867 691.276 38.6853 691.276 38.568V31.112C691.276 30.9947 691.319 30.8933 691.404 30.808C691.489 30.7227 691.591 30.68 691.708 30.68H692.924C693.041 30.68 693.143 30.7227 693.228 30.808C693.313 30.8933 693.356 30.9947 693.356 31.112V32.536H695.004C695.527 32.536 696.007 32.616 696.444 32.776C696.881 32.9253 697.255 33.144 697.564 33.432C697.873 33.7093 698.113 34.0507 698.284 34.456C698.465 34.8507 698.556 35.288 698.556 35.768ZM693.356 37.08H694.732C694.999 37.08 695.239 37.064 695.452 37.032C695.676 36.9893 695.868 36.92 696.028 36.824C696.188 36.728 696.311 36.5947 696.396 36.424C696.481 36.2533 696.524 36.0347 696.524 35.768C696.524 35.5013 696.481 35.2827 696.396 35.112C696.311 34.9413 696.188 34.808 696.028 34.712C695.868 34.616 695.676 34.552 695.452 34.52C695.239 34.4773 694.999 34.456 694.732 34.456H693.356V37.08ZM707.203 36.36L705.315 38.696C705.208 38.824 705.096 38.9093 704.979 38.952C704.872 38.984 704.75 39 704.611 39H703.379C703.262 39 703.16 38.9573 703.075 38.872C703 38.7867 702.963 38.68 702.963 38.552C702.963 38.4667 702.984 38.392 703.027 38.328L705.907 34.76L703.155 31.352C703.112 31.288 703.091 31.2133 703.091 31.128C703.091 31 703.128 30.8933 703.203 30.808C703.288 30.7227 703.39 30.68 703.507 30.68H704.739C704.878 30.68 705 30.7013 705.107 30.744C705.224 30.776 705.336 30.856 705.443 30.984L707.251 33.224L709.043 30.984C709.15 30.856 709.256 30.776 709.363 30.744C709.48 30.7013 709.608 30.68 709.747 30.68H710.979C711.096 30.68 711.192 30.7227 711.267 30.808C711.352 30.8933 711.395 31 711.395 31.128C711.395 31.2133 711.374 31.288 711.331 31.352L708.547 34.824L711.395 38.328C711.438 38.392 711.459 38.4667 711.459 38.552C711.459 38.68 711.416 38.7867 711.331 38.872C711.256 38.9573 711.16 39 711.043 39H709.811C709.672 39 709.544 38.984 709.427 38.952C709.32 38.9093 709.214 38.824 709.107 38.696L707.203 36.36Z" fill="#B8B8B8"/>
<path d="M731.68 39C731.563 39 731.461 38.9573 731.376 38.872C731.291 38.7867 731.248 38.6853 731.248 38.568V28.232C731.248 28.1147 731.291 28.0133 731.376 27.928C731.461 27.8427 731.563 27.8 731.68 27.8H738.672C738.789 27.8 738.891 27.8427 738.976 27.928C739.061 28.0133 739.104 28.1147 739.104 28.232V29.368C739.104 29.4853 739.061 29.5867 738.976 29.672C738.891 29.7573 738.789 29.8 738.672 29.8H733.408V32.216H736.432C736.944 32.216 737.408 32.3013 737.824 32.472C738.24 32.632 738.592 32.8613 738.88 33.16C739.179 33.448 739.408 33.8 739.568 34.216C739.739 34.632 739.824 35.096 739.824 35.608C739.824 36.0773 739.749 36.52 739.6 36.936C739.451 37.3413 739.232 37.6987 738.944 38.008C738.656 38.3173 738.299 38.5627 737.872 38.744C737.456 38.9147 736.976 39 736.432 39H731.68ZM733.408 37H736.096C736.64 37 737.035 36.8667 737.28 36.6C737.536 36.3227 737.664 35.992 737.664 35.608C737.664 35.224 737.536 34.8987 737.28 34.632C737.035 34.3547 736.64 34.216 736.096 34.216H733.408V37ZM741.094 34.84C741.094 34.2427 741.185 33.6827 741.366 33.16C741.548 32.6267 741.809 32.168 742.15 31.784C742.492 31.3893 742.902 31.08 743.382 30.856C743.873 30.632 744.417 30.52 745.014 30.52C745.612 30.52 746.15 30.632 746.63 30.856C747.121 31.0693 747.537 31.3627 747.878 31.736C748.22 32.0987 748.481 32.5307 748.662 33.032C748.854 33.5227 748.95 34.04 748.95 34.584V35.304C748.95 35.4213 748.908 35.5227 748.822 35.608C748.737 35.6933 748.636 35.736 748.518 35.736H743.174C743.174 35.9813 743.222 36.2 743.318 36.392C743.425 36.5733 743.564 36.728 743.734 36.856C743.905 36.984 744.102 37.08 744.326 37.144C744.55 37.208 744.78 37.24 745.014 37.24C745.356 37.24 745.633 37.208 745.846 37.144C746.06 37.0693 746.236 36.9787 746.374 36.872C746.492 36.7867 746.588 36.728 746.662 36.696C746.737 36.664 746.838 36.648 746.966 36.648H748.246C748.364 36.648 748.465 36.6907 748.55 36.776C748.646 36.8613 748.689 36.9627 748.678 37.08C748.668 37.2293 748.582 37.4213 748.422 37.656C748.273 37.8907 748.044 38.12 747.734 38.344C747.425 38.568 747.041 38.76 746.582 38.92C746.134 39.08 745.612 39.16 745.014 39.16C744.417 39.16 743.873 39.0587 743.382 38.856C742.902 38.6427 742.492 38.344 742.15 37.96C741.809 37.576 741.548 37.1227 741.366 36.6C741.185 36.0667 741.094 35.48 741.094 34.84ZM745.014 32.44C744.705 32.44 744.438 32.488 744.214 32.584C744.001 32.6693 743.82 32.7867 743.67 32.936C743.521 33.0747 743.404 33.2347 743.318 33.416C743.244 33.5867 743.196 33.752 743.174 33.912H746.79C746.769 33.752 746.726 33.5867 746.662 33.416C746.609 33.2347 746.513 33.0747 746.374 32.936C746.246 32.7867 746.07 32.6693 745.846 32.584C745.633 32.488 745.356 32.44 745.014 32.44ZM750.154 36.92C750.143 36.8027 750.18 36.7013 750.266 36.616C750.362 36.5307 750.468 36.488 750.586 36.488H751.802C751.919 36.488 752.015 36.5413 752.09 36.648C752.164 36.7547 752.244 36.8453 752.33 36.92C752.468 37.0373 752.639 37.1227 752.842 37.176C753.044 37.2187 753.364 37.24 753.802 37.24C754.399 37.24 754.81 37.1707 755.034 37.032C755.268 36.8933 755.386 36.7227 755.386 36.52C755.386 36.3387 755.279 36.1733 755.066 36.024C754.852 35.864 754.484 35.784 753.962 35.784H753.802H753.082C752.964 35.784 752.863 35.7413 752.778 35.656C752.692 35.5707 752.65 35.4693 752.65 35.352V34.296C752.65 34.1787 752.692 34.0773 752.778 33.992C752.863 33.9067 752.964 33.864 753.082 33.864H753.802C754.356 33.864 754.73 33.7947 754.922 33.656C755.124 33.5067 755.226 33.336 755.226 33.144C755.226 32.952 755.108 32.7867 754.874 32.648C754.639 32.5093 754.282 32.44 753.802 32.44C753.439 32.44 753.156 32.4773 752.954 32.552C752.762 32.6267 752.602 32.7227 752.474 32.84C752.388 32.9253 752.308 33.0213 752.234 33.128C752.159 33.224 752.063 33.272 751.946 33.272H750.73C750.612 33.272 750.506 33.2293 750.41 33.144C750.324 33.0587 750.287 32.9573 750.298 32.84C750.308 32.616 750.383 32.3707 750.522 32.104C750.671 31.8267 750.89 31.5707 751.178 31.336C751.466 31.1013 751.823 30.9093 752.25 30.76C752.687 30.6 753.204 30.52 753.802 30.52C754.41 30.52 754.932 30.5893 755.37 30.728C755.807 30.8667 756.17 31.0587 756.458 31.304C756.746 31.5387 756.959 31.816 757.098 32.136C757.236 32.456 757.306 32.7973 757.306 33.16C757.306 33.4693 757.258 33.7627 757.162 34.04C757.066 34.3067 756.916 34.552 756.714 34.776C756.959 35.0107 757.146 35.2773 757.274 35.576C757.402 35.8747 757.466 36.1893 757.466 36.52C757.466 36.8827 757.391 37.224 757.242 37.544C757.103 37.864 756.879 38.1467 756.57 38.392C756.271 38.6267 755.892 38.8133 755.434 38.952C754.975 39.0907 754.431 39.16 753.802 39.16C753.172 39.16 752.628 39.0853 752.17 38.936C751.722 38.7867 751.348 38.6 751.05 38.376C750.751 38.152 750.527 37.912 750.378 37.656C750.239 37.3893 750.164 37.144 750.154 36.92ZM763.78 31.112C763.78 30.9947 763.822 30.8933 763.908 30.808C763.993 30.7227 764.094 30.68 764.212 30.68H769.38C769.497 30.68 769.598 30.7227 769.684 30.808C769.769 30.8933 769.812 30.9947 769.812 31.112V37.08H770.212C770.329 37.08 770.43 37.1227 770.516 37.208C770.601 37.2933 770.644 37.3947 770.644 37.512V40.328C770.644 40.4453 770.601 40.5467 770.516 40.632C770.43 40.7173 770.329 40.76 770.212 40.76H769.044C768.926 40.76 768.814 40.7173 768.708 40.632C768.612 40.5467 768.564 40.4453 768.564 40.328V39H764.292V40.328C764.292 40.4453 764.249 40.5467 764.164 40.632C764.078 40.7173 763.977 40.76 763.86 40.76H762.644C762.526 40.76 762.425 40.7173 762.34 40.632C762.254 40.5467 762.212 40.4453 762.212 40.328V37.512C762.212 37.3947 762.254 37.2933 762.34 37.208C762.425 37.1227 762.526 37.08 762.644 37.08H763.06C763.209 37.08 763.326 37.0427 763.412 36.968C763.508 36.8827 763.582 36.776 763.636 36.648C763.689 36.52 763.726 36.376 763.748 36.216C763.769 36.0453 763.78 35.88 763.78 35.72V31.112ZM767.732 37.08V32.6H765.86V35.928C765.86 36.184 765.838 36.4027 765.796 36.584C765.764 36.7653 765.705 36.9307 765.62 37.08H767.732ZM771.938 34.84C771.938 34.2427 772.029 33.6827 772.21 33.16C772.391 32.6267 772.653 32.168 772.994 31.784C773.335 31.3893 773.746 31.08 774.226 30.856C774.717 30.632 775.261 30.52 775.858 30.52C776.455 30.52 776.994 30.632 777.474 30.856C777.965 31.0693 778.381 31.3627 778.722 31.736C779.063 32.0987 779.325 32.5307 779.506 33.032C779.698 33.5227 779.794 34.04 779.794 34.584V35.304C779.794 35.4213 779.751 35.5227 779.666 35.608C779.581 35.6933 779.479 35.736 779.362 35.736H774.018C774.018 35.9813 774.066 36.2 774.162 36.392C774.269 36.5733 774.407 36.728 774.578 36.856C774.749 36.984 774.946 37.08 775.17 37.144C775.394 37.208 775.623 37.24 775.858 37.24C776.199 37.24 776.477 37.208 776.69 37.144C776.903 37.0693 777.079 36.9787 777.218 36.872C777.335 36.7867 777.431 36.728 777.506 36.696C777.581 36.664 777.682 36.648 777.81 36.648H779.09C779.207 36.648 779.309 36.6907 779.394 36.776C779.49 36.8613 779.533 36.9627 779.522 37.08C779.511 37.2293 779.426 37.4213 779.266 37.656C779.117 37.8907 778.887 38.12 778.578 38.344C778.269 38.568 777.885 38.76 777.426 38.92C776.978 39.08 776.455 39.16 775.858 39.16C775.261 39.16 774.717 39.0587 774.226 38.856C773.746 38.6427 773.335 38.344 772.994 37.96C772.653 37.576 772.391 37.1227 772.21 36.6C772.029 36.0667 771.938 35.48 771.938 34.84ZM775.858 32.44C775.549 32.44 775.282 32.488 775.058 32.584C774.845 32.6693 774.663 32.7867 774.514 32.936C774.365 33.0747 774.247 33.2347 774.162 33.416C774.087 33.5867 774.039 33.752 774.018 33.912H777.634C777.613 33.752 777.57 33.5867 777.506 33.416C777.453 33.2347 777.357 33.0747 777.218 32.936C777.09 32.7867 776.914 32.6693 776.69 32.584C776.477 32.488 776.199 32.44 775.858 32.44ZM788.36 30.68C788.477 30.68 788.578 30.7227 788.664 30.808C788.749 30.8933 788.792 30.9947 788.792 31.112V32.168C788.792 32.2853 788.749 32.3867 788.664 32.472C788.578 32.5573 788.477 32.6 788.36 32.6H785.736V38.568C785.736 38.6853 785.693 38.7867 785.608 38.872C785.522 38.9573 785.421 39 785.304 39H784.088C783.97 39 783.869 38.9573 783.784 38.872C783.698 38.7867 783.656 38.6853 783.656 38.568V32.6H781.032C780.914 32.6 780.813 32.5573 780.728 32.472C780.642 32.3867 780.6 32.2853 780.6 32.168V31.112C780.6 30.9947 780.642 30.8933 780.728 30.808C780.813 30.7227 780.914 30.68 781.032 30.68H788.36ZM789.61 34.84C789.61 34.2427 789.701 33.6827 789.882 33.16C790.063 32.6267 790.325 32.168 790.666 31.784C791.007 31.3893 791.418 31.08 791.898 30.856C792.389 30.632 792.933 30.52 793.53 30.52C794.127 30.52 794.666 30.632 795.146 30.856C795.637 31.0693 796.053 31.3627 796.394 31.736C796.735 32.0987 796.997 32.5307 797.178 33.032C797.37 33.5227 797.466 34.04 797.466 34.584V35.304C797.466 35.4213 797.423 35.5227 797.338 35.608C797.253 35.6933 797.151 35.736 797.034 35.736H791.69C791.69 35.9813 791.738 36.2 791.834 36.392C791.941 36.5733 792.079 36.728 792.25 36.856C792.421 36.984 792.618 37.08 792.842 37.144C793.066 37.208 793.295 37.24 793.53 37.24C793.871 37.24 794.149 37.208 794.362 37.144C794.575 37.0693 794.751 36.9787 794.89 36.872C795.007 36.7867 795.103 36.728 795.178 36.696C795.253 36.664 795.354 36.648 795.482 36.648H796.762C796.879 36.648 796.981 36.6907 797.066 36.776C797.162 36.8613 797.205 36.9627 797.194 37.08C797.183 37.2293 797.098 37.4213 796.938 37.656C796.789 37.8907 796.559 38.12 796.25 38.344C795.941 38.568 795.557 38.76 795.098 38.92C794.65 39.08 794.127 39.16 793.53 39.16C792.933 39.16 792.389 39.0587 791.898 38.856C791.418 38.6427 791.007 38.344 790.666 37.96C790.325 37.576 790.063 37.1227 789.882 36.6C789.701 36.0667 789.61 35.48 789.61 34.84ZM793.53 32.44C793.221 32.44 792.954 32.488 792.73 32.584C792.517 32.6693 792.335 32.7867 792.186 32.936C792.037 33.0747 791.919 33.2347 791.834 33.416C791.759 33.5867 791.711 33.752 791.69 33.912H795.306C795.285 33.752 795.242 33.5867 795.178 33.416C795.125 33.2347 795.029 33.0747 794.89 32.936C794.762 32.7867 794.586 32.6693 794.362 32.584C794.149 32.488 793.871 32.44 793.53 32.44ZM805.549 39C805.432 39 805.331 38.9573 805.245 38.872C805.16 38.7867 805.117 38.6853 805.117 38.568V34.088L801.229 38.824C801.133 38.9413 801.011 39 800.861 39H799.645C799.528 39 799.427 38.9573 799.341 38.872C799.256 38.7867 799.213 38.6853 799.213 38.568V31.112C799.213 30.9947 799.256 30.8933 799.341 30.808C799.427 30.7227 799.528 30.68 799.645 30.68H800.861C800.979 30.68 801.08 30.7227 801.165 30.808C801.251 30.8933 801.293 30.9947 801.293 31.112V35.624L805.181 30.856C805.277 30.7387 805.4 30.68 805.549 30.68H806.765C806.883 30.68 806.984 30.7227 807.069 30.808C807.155 30.8933 807.197 30.9947 807.197 31.112V38.568C807.197 38.6853 807.155 38.7867 807.069 38.872C806.984 38.9573 806.883 39 806.765 39H805.549ZM803.197 29.56C802.749 29.56 802.376 29.496 802.077 29.368C801.779 29.2293 801.539 29.0587 801.357 28.856C801.187 28.6427 801.064 28.408 800.989 28.152C800.925 27.896 800.893 27.64 800.893 27.384C800.893 27.2987 800.92 27.2293 800.973 27.176C801.027 27.112 801.101 27.08 801.197 27.08H802.109C802.205 27.08 802.28 27.112 802.333 27.176C802.387 27.2293 802.413 27.2987 802.413 27.384C802.413 27.6187 802.472 27.8107 802.589 27.96C802.707 28.1093 802.909 28.184 803.197 28.184C803.485 28.184 803.688 28.1093 803.805 27.96C803.923 27.8107 803.981 27.6187 803.981 27.384C803.981 27.2987 804.008 27.2293 804.061 27.176C804.115 27.112 804.189 27.08 804.285 27.08H805.197C805.293 27.08 805.368 27.112 805.421 27.176C805.475 27.2293 805.501 27.2987 805.501 27.384C805.501 27.64 805.464 27.896 805.389 28.152C805.325 28.408 805.203 28.6427 805.021 28.856C804.851 29.0587 804.616 29.2293 804.317 29.368C804.019 29.496 803.645 29.56 803.197 29.56Z" fill="#B8B8B8"/>
<path d="M827.4 31.416C827.325 31.32 827.293 31.2133 827.304 31.096C827.325 30.9787 827.384 30.8827 827.48 30.808L830.952 28.072C831.037 28.008 831.123 27.9493 831.208 27.896C831.304 27.832 831.405 27.8 831.512 27.8H832.76C832.877 27.8 832.979 27.8427 833.064 27.928C833.149 28.0133 833.192 28.1147 833.192 28.232V38.568C833.192 38.6853 833.149 38.7867 833.064 38.872C832.979 38.9573 832.877 39 832.76 39H831.464C831.347 39 831.245 38.9573 831.16 38.872C831.075 38.7867 831.032 38.6853 831.032 38.568V30.664L828.76 32.44C828.664 32.5147 828.557 32.5467 828.44 32.536C828.333 32.5147 828.237 32.456 828.152 32.36L827.4 31.416ZM846.514 30.68C846.631 30.68 846.732 30.7227 846.818 30.808C846.903 30.8933 846.946 30.9947 846.946 31.112V38.568C846.946 38.6853 846.903 38.7867 846.818 38.872C846.732 38.9573 846.631 39 846.514 39H845.298C845.18 39 845.079 38.9573 844.994 38.872C844.908 38.7867 844.866 38.6853 844.866 38.568V35.768H841.122V38.568C841.122 38.6853 841.079 38.7867 840.994 38.872C840.908 38.9573 840.807 39 840.69 39H839.474C839.356 39 839.255 38.9627 839.17 38.888C839.084 38.8027 839.042 38.696 839.042 38.568V31.112C839.042 30.9947 839.084 30.8933 839.17 30.808C839.255 30.7227 839.356 30.68 839.474 30.68H840.69C840.807 30.68 840.908 30.7227 840.994 30.808C841.079 30.8933 841.122 30.9947 841.122 31.112V33.848H844.866V31.112C844.866 30.9947 844.908 30.8933 844.994 30.808C845.079 30.7227 845.18 30.68 845.298 30.68H846.514ZM852.815 30.52C853.402 30.52 853.93 30.6107 854.399 30.792C854.879 30.9733 855.29 31.224 855.631 31.544C855.983 31.864 856.26 32.2373 856.463 32.664C856.676 33.0907 856.799 33.5493 856.831 34.04C856.842 34.136 856.847 34.2587 856.847 34.408C856.847 34.5573 856.847 34.7067 856.847 34.856C856.847 35.0053 856.847 35.1547 856.847 35.304C856.847 35.4427 856.842 35.56 856.831 35.656C856.788 36.1467 856.666 36.6053 856.463 37.032C856.26 37.4587 855.983 37.832 855.631 38.152C855.29 38.4613 854.879 38.7067 854.399 38.888C853.93 39.0693 853.402 39.16 852.815 39.16C852.228 39.16 851.695 39.0693 851.215 38.888C850.746 38.7067 850.335 38.4613 849.983 38.152C849.642 37.832 849.37 37.4587 849.167 37.032C848.964 36.6053 848.842 36.1467 848.799 35.656C848.788 35.56 848.778 35.4427 848.767 35.304C848.767 35.1547 848.767 35.0053 848.767 34.856C848.767 34.7067 848.767 34.5573 848.767 34.408C848.778 34.2587 848.788 34.136 848.799 34.04C848.831 33.5493 848.948 33.0907 849.151 32.664C849.364 32.2373 849.642 31.864 849.983 31.544C850.335 31.224 850.746 30.9733 851.215 30.792C851.695 30.6107 852.228 30.52 852.815 30.52ZM854.751 34.12C854.719 33.7893 854.639 33.5173 854.511 33.304C854.394 33.08 854.244 32.904 854.063 32.776C853.882 32.648 853.684 32.5627 853.471 32.52C853.258 32.4667 853.039 32.44 852.815 32.44C852.591 32.44 852.372 32.4667 852.159 32.52C851.946 32.5627 851.748 32.648 851.567 32.776C851.386 32.904 851.231 33.08 851.103 33.304C850.986 33.5173 850.911 33.7893 850.879 34.12C850.868 34.2053 850.858 34.312 850.847 34.44C850.847 34.568 850.847 34.7013 850.847 34.84C850.847 34.9787 850.847 35.1173 850.847 35.256C850.858 35.384 850.868 35.4853 850.879 35.56C850.911 35.8907 850.986 36.168 851.103 36.392C851.231 36.6053 851.386 36.776 851.567 36.904C851.748 37.032 851.946 37.1227 852.159 37.176C852.372 37.2187 852.591 37.24 852.815 37.24C853.039 37.24 853.258 37.2187 853.471 37.176C853.684 37.1227 853.882 37.032 854.063 36.904C854.244 36.776 854.394 36.6053 854.511 36.392C854.639 36.168 854.719 35.8907 854.751 35.56C854.762 35.4853 854.767 35.384 854.767 35.256C854.767 35.1173 854.767 34.9787 854.767 34.84C854.767 34.7013 854.767 34.568 854.767 34.44C854.767 34.312 854.762 34.2053 854.751 34.12ZM863.131 35.112L865.403 31C865.435 30.936 865.493 30.8667 865.579 30.792C865.664 30.7173 865.813 30.68 866.027 30.68H867.163C867.28 30.68 867.381 30.7227 867.467 30.808C867.552 30.8933 867.595 30.9947 867.595 31.112V38.568C867.595 38.6853 867.552 38.7867 867.467 38.872C867.381 38.9573 867.28 39 867.163 39H865.947C865.829 39 865.728 38.9573 865.642 38.872C865.557 38.7867 865.515 38.6853 865.515 38.568V34.552L863.995 37.24C863.941 37.3253 863.872 37.416 863.787 37.512C863.701 37.5973 863.584 37.64 863.435 37.64H862.827C862.677 37.64 862.56 37.5973 862.475 37.512C862.389 37.416 862.32 37.3253 862.266 37.24L860.747 34.552V38.568C860.747 38.6853 860.704 38.7867 860.619 38.872C860.533 38.9573 860.432 39 860.315 39H859.099C858.981 39 858.88 38.9573 858.795 38.872C858.709 38.7867 858.667 38.6853 858.667 38.568V31.112C858.667 30.9947 858.709 30.8933 858.795 30.808C858.88 30.7227 858.981 30.68 859.099 30.68H860.235C860.448 30.68 860.597 30.7173 860.683 30.792C860.768 30.8667 860.827 30.936 860.859 31L863.131 35.112ZM869.391 34.84C869.391 34.2427 869.482 33.6827 869.663 33.16C869.844 32.6267 870.106 32.168 870.447 31.784C870.788 31.3893 871.199 31.08 871.679 30.856C872.17 30.632 872.714 30.52 873.311 30.52C873.908 30.52 874.447 30.632 874.927 30.856C875.418 31.0693 875.834 31.3627 876.175 31.736C876.516 32.0987 876.778 32.5307 876.959 33.032C877.151 33.5227 877.247 34.04 877.247 34.584V35.304C877.247 35.4213 877.204 35.5227 877.119 35.608C877.034 35.6933 876.932 35.736 876.815 35.736H871.471C871.471 35.9813 871.519 36.2 871.615 36.392C871.722 36.5733 871.86 36.728 872.031 36.856C872.202 36.984 872.399 37.08 872.623 37.144C872.847 37.208 873.076 37.24 873.311 37.24C873.652 37.24 873.93 37.208 874.143 37.144C874.356 37.0693 874.532 36.9787 874.671 36.872C874.788 36.7867 874.884 36.728 874.959 36.696C875.034 36.664 875.135 36.648 875.263 36.648H876.543C876.66 36.648 876.762 36.6907 876.847 36.776C876.943 36.8613 876.986 36.9627 876.975 37.08C876.964 37.2293 876.879 37.4213 876.719 37.656C876.57 37.8907 876.34 38.12 876.031 38.344C875.722 38.568 875.338 38.76 874.879 38.92C874.431 39.08 873.908 39.16 873.311 39.16C872.714 39.16 872.17 39.0587 871.679 38.856C871.199 38.6427 870.788 38.344 870.447 37.96C870.106 37.576 869.844 37.1227 869.663 36.6C869.482 36.0667 869.391 35.48 869.391 34.84ZM873.311 32.44C873.002 32.44 872.735 32.488 872.511 32.584C872.298 32.6693 872.116 32.7867 871.967 32.936C871.818 33.0747 871.7 33.2347 871.615 33.416C871.54 33.5867 871.492 33.752 871.471 33.912H875.087C875.066 33.752 875.023 33.5867 874.959 33.416C874.906 33.2347 874.81 33.0747 874.671 32.936C874.543 32.7867 874.367 32.6693 874.143 32.584C873.93 32.488 873.652 32.44 873.311 32.44ZM883.491 39.16C883.16 39.16 882.861 39.128 882.595 39.064C882.339 39 882.109 38.92 881.907 38.824C881.715 38.728 881.549 38.6267 881.411 38.52C881.272 38.4027 881.16 38.296 881.075 38.2V41.608C881.075 41.7253 881.032 41.8267 880.947 41.912C880.861 41.9973 880.76 42.04 880.643 42.04H879.427C879.309 42.04 879.208 41.9973 879.123 41.912C879.037 41.8267 878.995 41.7253 878.995 41.608V31.112C878.995 30.9947 879.037 30.8933 879.123 30.808C879.208 30.7227 879.309 30.68 879.427 30.68H880.643C880.76 30.68 880.861 30.7227 880.947 30.808C881.032 30.8933 881.075 30.9947 881.075 31.112V31.48C881.16 31.384 881.272 31.2827 881.411 31.176C881.549 31.0587 881.715 30.952 881.907 30.856C882.109 30.76 882.339 30.68 882.595 30.616C882.861 30.552 883.16 30.52 883.491 30.52C884.024 30.52 884.504 30.6267 884.931 30.84C885.368 31.0427 885.736 31.32 886.035 31.672C886.344 32.0133 886.584 32.4133 886.755 32.872C886.936 33.32 887.037 33.7893 887.059 34.28C887.069 34.44 887.075 34.6267 887.075 34.84C887.075 35.0533 887.069 35.24 887.059 35.4C887.037 35.8907 886.936 36.3653 886.755 36.824C886.584 37.272 886.344 37.672 886.035 38.024C885.736 38.3653 885.368 38.6427 884.931 38.856C884.504 39.0587 884.024 39.16 883.491 39.16ZM884.979 35.288C885.011 34.9893 885.011 34.6907 884.979 34.392C884.915 33.6987 884.701 33.2027 884.339 32.904C883.976 32.5947 883.533 32.44 883.011 32.44C882.488 32.44 882.045 32.5947 881.683 32.904C881.331 33.2133 881.128 33.656 881.075 34.232C881.053 34.392 881.043 34.5947 881.043 34.84C881.043 35.0853 881.053 35.288 881.075 35.448C881.128 36.0027 881.331 36.44 881.683 36.76C882.045 37.08 882.488 37.24 883.011 37.24C883.533 37.24 883.976 37.0907 884.339 36.792C884.701 36.4827 884.915 35.9813 884.979 35.288Z" fill="#B8B8B8"/>
<path d="M605.59 33.3821L605.391 33.5589L605.182 33.7321C605.036 33.8453 604.891 33.9584 604.738 34.0645L601.585 40.5063L600.957 36.7975L601.891 35.3054L601.536 35.3726C601.24 35.426 600.941 35.4614 600.641 35.4787C600.474 35.4787 600.307 35.4787 600.137 35.4787C599.504 35.4787 598.874 35.4039 598.259 35.2559L599.231 36.7975L598.624 40.577L595.134 33.7463C594.974 33.619 594.818 33.4846 594.669 33.3467L594.616 33.3998C589.933 37.4268 590 44.4661 590 44.7489V45H610V44.7348C609.659 36.6171 606.393 33.923 605.59 33.3821Z" fill="#B8B8B8"/>
<path d="M600.147 20C598.663 20 597.212 20.4384 595.977 21.2596C594.743 22.0809 593.781 23.2482 593.213 24.6139C592.645 25.9797 592.496 27.4825 592.786 28.9323C593.075 30.3822 593.79 31.714 594.84 32.7592C595.89 33.8045 597.227 34.5164 598.683 34.8048C600.139 35.0932 601.648 34.9451 603.02 34.3794C604.391 33.8137 605.563 32.8558 606.388 31.6266C607.213 30.3975 607.653 28.9524 607.653 27.4742C607.65 25.4928 606.859 23.5933 605.452 22.1922C604.045 20.7912 602.137 20.0028 600.147 20V20Z" fill="#B8B8B8"/>
<path d="M561 1H329V64H561V1Z" fill="white" stroke="#00D1FF" stroke-width="2"/>
<path d="M392.56 37.216C392.549 37.088 392.587 36.9867 392.672 36.912C392.768 36.8267 392.875 36.784 392.992 36.784H394.288C394.395 36.784 394.485 36.8267 394.56 36.912C394.635 36.9867 394.704 37.0827 394.768 37.2C394.971 37.5733 395.269 37.8293 395.664 37.968C396.059 38.096 396.517 38.16 397.04 38.16C397.36 38.16 397.664 38.1387 397.952 38.096C398.24 38.0533 398.491 37.9787 398.704 37.872C398.917 37.7547 399.083 37.6053 399.2 37.424C399.328 37.2427 399.392 37.0133 399.392 36.736C399.392 36.4693 399.328 36.2453 399.2 36.064C399.083 35.8827 398.917 35.7387 398.704 35.632C398.491 35.5147 398.24 35.4293 397.952 35.376C397.664 35.3227 397.36 35.296 397.04 35.296H395.616C395.499 35.2853 395.403 35.2427 395.328 35.168C395.253 35.0827 395.216 34.9813 395.216 34.864V33.728C395.216 33.6107 395.253 33.5147 395.328 33.44C395.403 33.3547 395.499 33.3067 395.616 33.296H396.944C397.616 33.296 398.139 33.1893 398.512 32.976C398.885 32.7627 399.072 32.432 399.072 31.984C399.072 31.504 398.88 31.1627 398.496 30.96C398.123 30.7467 397.611 30.64 396.96 30.64C396.597 30.64 396.224 30.7093 395.84 30.848C395.456 30.9867 395.163 31.2373 394.96 31.6C394.896 31.7173 394.827 31.8187 394.752 31.904C394.677 31.9787 394.587 32.016 394.48 32.016H393.184C393.067 32.016 392.96 31.9787 392.864 31.904C392.779 31.8187 392.741 31.712 392.752 31.584C392.784 31.1573 392.901 30.7627 393.104 30.4C393.317 30.0373 393.605 29.728 393.968 29.472C394.341 29.2053 394.779 29.0027 395.28 28.864C395.792 28.7147 396.352 28.64 396.96 28.64C398.304 28.64 399.349 28.9387 400.096 29.536C400.853 30.1333 401.232 30.9493 401.232 31.984C401.232 32.4747 401.136 32.9013 400.944 33.264C400.752 33.616 400.512 33.9307 400.224 34.208C400.608 34.5067 400.923 34.8693 401.168 35.296C401.424 35.7227 401.552 36.2027 401.552 36.736C401.552 37.2907 401.44 37.7813 401.216 38.208C400.992 38.6347 400.677 38.992 400.272 39.28C399.877 39.568 399.403 39.7867 398.848 39.936C398.304 40.0853 397.701 40.16 397.04 40.16C396.347 40.16 395.728 40.0907 395.184 39.952C394.64 39.8027 394.176 39.6 393.792 39.344C393.419 39.0773 393.125 38.768 392.912 38.416C392.709 38.0533 392.592 37.6533 392.56 37.216ZM403.369 33.728C403.412 33.504 403.508 33.264 403.657 33.008C403.817 32.752 404.036 32.512 404.313 32.288C404.601 32.064 404.948 31.8827 405.353 31.744C405.769 31.5947 406.249 31.52 406.793 31.52C407.337 31.52 407.828 31.5947 408.265 31.744C408.703 31.8827 409.076 32.0907 409.385 32.368C409.705 32.6453 409.951 32.9973 410.121 33.424C410.292 33.84 410.377 34.32 410.377 34.864V39.568C410.377 39.6853 410.335 39.7867 410.249 39.872C410.164 39.9573 410.063 40 409.945 40H408.729C408.612 40 408.511 39.9573 408.425 39.872C408.34 39.7867 408.297 39.6853 408.297 39.568V39.04C408.073 39.3493 407.748 39.616 407.321 39.84C406.905 40.0533 406.372 40.16 405.721 40.16C405.263 40.16 404.852 40.1013 404.489 39.984C404.127 39.856 403.823 39.68 403.577 39.456C403.332 39.232 403.14 38.9707 403.001 38.672C402.873 38.3627 402.809 38.0267 402.809 37.664C402.809 36.928 403.071 36.352 403.593 35.936C404.116 35.52 404.815 35.2373 405.689 35.088L408.297 34.64C408.297 34.2027 408.153 33.8933 407.865 33.712C407.577 33.5307 407.22 33.44 406.793 33.44C406.527 33.44 406.319 33.4773 406.169 33.552C406.02 33.6267 405.876 33.728 405.737 33.856C405.641 33.9413 405.551 34 405.465 34.032C405.391 34.064 405.305 34.08 405.209 34.08H403.721C403.615 34.08 403.524 34.048 403.449 33.984C403.375 33.92 403.348 33.8347 403.369 33.728ZM406.041 38.24C406.404 38.24 406.724 38.192 407.001 38.096C407.289 37.9893 407.529 37.8507 407.721 37.68C407.913 37.5093 408.057 37.3173 408.153 37.104C408.249 36.8907 408.297 36.672 408.297 36.448V36.288L406.121 36.672C405.684 36.7467 405.369 36.8587 405.177 37.008C404.985 37.1467 404.889 37.3387 404.889 37.584C404.889 37.808 405.001 37.9733 405.225 38.08C405.46 38.1867 405.732 38.24 406.041 38.24ZM412.094 35.84C412.094 35.2427 412.185 34.6827 412.366 34.16C412.548 33.6267 412.809 33.168 413.15 32.784C413.492 32.3893 413.902 32.08 414.382 31.856C414.873 31.632 415.417 31.52 416.014 31.52C416.612 31.52 417.15 31.632 417.63 31.856C418.121 32.0693 418.537 32.3627 418.878 32.736C419.22 33.0987 419.481 33.5307 419.662 34.032C419.854 34.5227 419.95 35.04 419.95 35.584V36.304C419.95 36.4213 419.908 36.5227 419.822 36.608C419.737 36.6933 419.636 36.736 419.518 36.736H414.174C414.174 36.9813 414.222 37.2 414.318 37.392C414.425 37.5733 414.564 37.728 414.734 37.856C414.905 37.984 415.102 38.08 415.326 38.144C415.55 38.208 415.78 38.24 416.014 38.24C416.356 38.24 416.633 38.208 416.846 38.144C417.06 38.0693 417.236 37.9787 417.374 37.872C417.492 37.7867 417.588 37.728 417.662 37.696C417.737 37.664 417.838 37.648 417.966 37.648H419.246C419.364 37.648 419.465 37.6907 419.55 37.776C419.646 37.8613 419.689 37.9627 419.678 38.08C419.668 38.2293 419.582 38.4213 419.422 38.656C419.273 38.8907 419.044 39.12 418.734 39.344C418.425 39.568 418.041 39.76 417.582 39.92C417.134 40.08 416.612 40.16 416.014 40.16C415.417 40.16 414.873 40.0587 414.382 39.856C413.902 39.6427 413.492 39.344 413.15 38.96C412.809 38.576 412.548 38.1227 412.366 37.6C412.185 37.0667 412.094 36.48 412.094 35.84ZM416.014 33.44C415.705 33.44 415.438 33.488 415.214 33.584C415.001 33.6693 414.82 33.7867 414.67 33.936C414.521 34.0747 414.404 34.2347 414.318 34.416C414.244 34.5867 414.196 34.752 414.174 34.912H417.79C417.769 34.752 417.726 34.5867 417.662 34.416C417.609 34.2347 417.513 34.0747 417.374 33.936C417.246 33.7867 417.07 33.6693 416.846 33.584C416.633 33.488 416.356 33.44 416.014 33.44ZM421.154 37.92C421.143 37.8027 421.18 37.7013 421.266 37.616C421.362 37.5307 421.468 37.488 421.586 37.488H422.802C422.919 37.488 423.015 37.5413 423.09 37.648C423.164 37.7547 423.244 37.8453 423.33 37.92C423.468 38.0373 423.639 38.1227 423.842 38.176C424.044 38.2187 424.364 38.24 424.802 38.24C425.399 38.24 425.81 38.1707 426.034 38.032C426.268 37.8933 426.386 37.7227 426.386 37.52C426.386 37.3387 426.279 37.1733 426.066 37.024C425.852 36.864 425.484 36.784 424.962 36.784H424.802H424.082C423.964 36.784 423.863 36.7413 423.778 36.656C423.692 36.5707 423.65 36.4693 423.65 36.352V35.296C423.65 35.1787 423.692 35.0773 423.778 34.992C423.863 34.9067 423.964 34.864 424.082 34.864H424.802C425.356 34.864 425.73 34.7947 425.922 34.656C426.124 34.5067 426.226 34.336 426.226 34.144C426.226 33.952 426.108 33.7867 425.874 33.648C425.639 33.5093 425.282 33.44 424.802 33.44C424.439 33.44 424.156 33.4773 423.954 33.552C423.762 33.6267 423.602 33.7227 423.474 33.84C423.388 33.9253 423.308 34.0213 423.234 34.128C423.159 34.224 423.063 34.272 422.946 34.272H421.73C421.612 34.272 421.506 34.2293 421.41 34.144C421.324 34.0587 421.287 33.9573 421.298 33.84C421.308 33.616 421.383 33.3707 421.522 33.104C421.671 32.8267 421.89 32.5707 422.178 32.336C422.466 32.1013 422.823 31.9093 423.25 31.76C423.687 31.6 424.204 31.52 424.802 31.52C425.41 31.52 425.932 31.5893 426.37 31.728C426.807 31.8667 427.17 32.0587 427.458 32.304C427.746 32.5387 427.959 32.816 428.098 33.136C428.236 33.456 428.306 33.7973 428.306 34.16C428.306 34.4693 428.258 34.7627 428.162 35.04C428.066 35.3067 427.916 35.552 427.714 35.776C427.959 36.0107 428.146 36.2773 428.274 36.576C428.402 36.8747 428.466 37.1893 428.466 37.52C428.466 37.8827 428.391 38.224 428.242 38.544C428.103 38.864 427.879 39.1467 427.57 39.392C427.271 39.6267 426.892 39.8133 426.434 39.952C425.975 40.0907 425.431 40.16 424.802 40.16C424.172 40.16 423.628 40.0853 423.17 39.936C422.722 39.7867 422.348 39.6 422.05 39.376C421.751 39.152 421.527 38.912 421.378 38.656C421.239 38.3893 421.164 38.144 421.154 37.92ZM431.139 32.112C431.139 31.9947 431.182 31.8933 431.267 31.808C431.352 31.7227 431.454 31.68 431.571 31.68H436.739C436.856 31.68 436.958 31.7227 437.043 31.808C437.128 31.8933 437.171 31.9947 437.171 32.112V38.08H437.571C437.688 38.08 437.79 38.1227 437.875 38.208C437.96 38.2933 438.003 38.3947 438.003 38.512V41.328C438.003 41.4453 437.96 41.5467 437.875 41.632C437.79 41.7173 437.688 41.76 437.571 41.76H436.403C436.286 41.76 436.174 41.7173 436.067 41.632C435.971 41.5467 435.923 41.4453 435.923 41.328V40H431.651V41.328C431.651 41.4453 431.608 41.5467 431.523 41.632C431.438 41.7173 431.336 41.76 431.219 41.76H430.003C429.886 41.76 429.784 41.7173 429.699 41.632C429.614 41.5467 429.571 41.4453 429.571 41.328V38.512C429.571 38.3947 429.614 38.2933 429.699 38.208C429.784 38.1227 429.886 38.08 430.003 38.08H430.419C430.568 38.08 430.686 38.0427 430.771 37.968C430.867 37.8827 430.942 37.776 430.995 37.648C431.048 37.52 431.086 37.376 431.107 37.216C431.128 37.0453 431.139 36.88 431.139 36.72V32.112ZM435.091 38.08V33.6H433.219V36.928C433.219 37.184 433.198 37.4027 433.155 37.584C433.123 37.7653 433.064 37.9307 432.979 38.08H435.091ZM443.799 36.16C443.682 36.16 443.581 36.1173 443.495 36.032C443.41 35.9467 443.367 35.8453 443.367 35.728V34.672C443.367 34.5547 443.41 34.4533 443.495 34.368C443.581 34.2827 443.682 34.24 443.799 34.24H448.679C448.797 34.24 448.898 34.2827 448.983 34.368C449.069 34.4533 449.111 34.5547 449.111 34.672V35.728C449.111 35.8453 449.069 35.9467 448.983 36.032C448.898 36.1173 448.797 36.16 448.679 36.16H443.799ZM454.63 32.976C454.662 32.3787 454.774 31.8187 454.966 31.296C455.168 30.7627 455.462 30.304 455.846 29.92C456.23 29.5253 456.71 29.216 457.286 28.992C457.862 28.7573 458.544 28.64 459.334 28.64C460.112 28.64 460.79 28.752 461.366 28.976C461.942 29.2 462.422 29.5093 462.806 29.904C463.19 30.2987 463.483 30.7573 463.686 31.28C463.888 31.8027 464.006 32.368 464.038 32.976C464.048 33.1787 464.054 33.4027 464.054 33.648C464.064 33.8933 464.07 34.1493 464.07 34.416C464.07 34.672 464.064 34.9227 464.054 35.168C464.054 35.4133 464.048 35.6373 464.038 35.84C464.006 36.4373 463.888 37.0027 463.686 37.536C463.494 38.0587 463.206 38.5173 462.822 38.912C462.438 39.296 461.952 39.6 461.366 39.824C460.79 40.048 460.112 40.16 459.334 40.16C458.544 40.16 457.862 40.048 457.286 39.824C456.71 39.6 456.23 39.296 455.846 38.912C455.462 38.5173 455.168 38.0587 454.966 37.536C454.774 37.0027 454.662 36.4373 454.63 35.84C454.619 35.6373 454.608 35.4133 454.598 35.168C454.598 34.9227 454.598 34.672 454.598 34.416C454.598 34.1493 454.598 33.8933 454.598 33.648C454.608 33.4027 454.619 33.1787 454.63 32.976ZM461.878 33.056C461.835 32.288 461.584 31.696 461.126 31.28C460.678 30.8533 460.08 30.64 459.334 30.64C458.587 30.64 457.984 30.8533 457.526 31.28C457.078 31.696 456.832 32.288 456.79 33.056C456.768 33.4613 456.758 33.9147 456.758 34.416C456.758 34.9067 456.768 35.3547 456.79 35.76C456.832 36.528 457.078 37.12 457.526 37.536C457.984 37.952 458.587 38.16 459.334 38.16C460.08 38.16 460.678 37.952 461.126 37.536C461.584 37.12 461.835 36.528 461.878 35.76C461.899 35.3547 461.91 34.9067 461.91 34.416C461.91 33.9147 461.899 33.4613 461.878 33.056ZM472.922 31.68C473.04 31.68 473.141 31.7227 473.226 31.808C473.312 31.8933 473.354 31.9947 473.354 32.112V33.168C473.354 33.2853 473.312 33.3867 473.226 33.472C473.141 33.5573 473.04 33.6 472.922 33.6H470.298V39.568C470.298 39.6853 470.256 39.7867 470.17 39.872C470.085 39.9573 469.984 40 469.866 40H468.65C468.533 40 468.432 39.9573 468.346 39.872C468.261 39.7867 468.218 39.6853 468.218 39.568V33.6H465.594C465.477 33.6 465.376 33.5573 465.29 33.472C465.205 33.3867 465.162 33.2853 465.162 33.168V32.112C465.162 31.9947 465.205 31.8933 465.29 31.808C465.376 31.7227 465.477 31.68 465.594 31.68H472.922ZM483.209 36.768C483.209 37.248 483.119 37.6907 482.937 38.096C482.767 38.4907 482.527 38.832 482.217 39.12C481.908 39.3973 481.535 39.616 481.097 39.776C480.66 39.9253 480.18 40 479.657 40H476.361C476.244 40 476.143 39.9573 476.057 39.872C475.972 39.7867 475.929 39.6853 475.929 39.568V33.6H474.345C474.228 33.6 474.127 33.5573 474.041 33.472C473.956 33.3867 473.913 33.2853 473.913 33.168V32.112C473.913 31.9947 473.956 31.8933 474.041 31.808C474.127 31.7227 474.228 31.68 474.345 31.68H477.577C477.695 31.68 477.796 31.7227 477.881 31.808C477.967 31.8933 478.009 31.9947 478.009 32.112V33.536H479.657C480.18 33.536 480.66 33.616 481.097 33.776C481.535 33.9253 481.908 34.144 482.217 34.432C482.527 34.7093 482.767 35.0507 482.937 35.456C483.119 35.8507 483.209 36.288 483.209 36.768ZM478.009 38.08H479.385C479.652 38.08 479.892 38.064 480.105 38.032C480.329 37.9893 480.521 37.92 480.681 37.824C480.841 37.728 480.964 37.5947 481.049 37.424C481.135 37.2533 481.177 37.0347 481.177 36.768C481.177 36.5013 481.135 36.2827 481.049 36.112C480.964 35.9413 480.841 35.808 480.681 35.712C480.521 35.616 480.329 35.552 480.105 35.52C479.892 35.4773 479.652 35.456 479.385 35.456H478.009V38.08ZM484.376 35.84C484.376 35.2427 484.466 34.6827 484.648 34.16C484.829 33.6267 485.09 33.168 485.432 32.784C485.773 32.3893 486.184 32.08 486.664 31.856C487.154 31.632 487.698 31.52 488.296 31.52C488.893 31.52 489.432 31.632 489.912 31.856C490.402 32.0693 490.818 32.3627 491.16 32.736C491.501 33.0987 491.762 33.5307 491.944 34.032C492.136 34.5227 492.232 35.04 492.232 35.584V36.304C492.232 36.4213 492.189 36.5227 492.104 36.608C492.018 36.6933 491.917 36.736 491.8 36.736H486.456C486.456 36.9813 486.504 37.2 486.6 37.392C486.706 37.5733 486.845 37.728 487.016 37.856C487.186 37.984 487.384 38.08 487.608 38.144C487.832 38.208 488.061 38.24 488.296 38.24C488.637 38.24 488.914 38.208 489.128 38.144C489.341 38.0693 489.517 37.9787 489.656 37.872C489.773 37.7867 489.869 37.728 489.944 37.696C490.018 37.664 490.12 37.648 490.248 37.648H491.528C491.645 37.648 491.746 37.6907 491.832 37.776C491.928 37.8613 491.97 37.9627 491.96 38.08C491.949 38.2293 491.864 38.4213 491.704 38.656C491.554 38.8907 491.325 39.12 491.016 39.344C490.706 39.568 490.322 39.76 489.864 39.92C489.416 40.08 488.893 40.16 488.296 40.16C487.698 40.16 487.154 40.0587 486.664 39.856C486.184 39.6427 485.773 39.344 485.432 38.96C485.09 38.576 484.829 38.1227 484.648 37.6C484.466 37.0667 484.376 36.48 484.376 35.84ZM488.296 33.44C487.986 33.44 487.72 33.488 487.496 33.584C487.282 33.6693 487.101 33.7867 486.952 33.936C486.802 34.0747 486.685 34.2347 486.6 34.416C486.525 34.5867 486.477 34.752 486.456 34.912H490.072C490.05 34.752 490.008 34.5867 489.944 34.416C489.89 34.2347 489.794 34.0747 489.656 33.936C489.528 33.7867 489.352 33.6693 489.128 33.584C488.914 33.488 488.637 33.44 488.296 33.44ZM493.435 37.92C493.424 37.8027 493.462 37.7013 493.547 37.616C493.643 37.5307 493.75 37.488 493.867 37.488H495.083C495.2 37.488 495.296 37.5413 495.371 37.648C495.446 37.7547 495.526 37.8453 495.611 37.92C495.75 38.0373 495.92 38.1227 496.123 38.176C496.326 38.2187 496.646 38.24 497.083 38.24C497.68 38.24 498.091 38.1707 498.315 38.032C498.55 37.8933 498.667 37.7227 498.667 37.52C498.667 37.3387 498.56 37.1733 498.347 37.024C498.134 36.864 497.766 36.784 497.243 36.784H497.083H496.363C496.246 36.784 496.144 36.7413 496.059 36.656C495.974 36.5707 495.931 36.4693 495.931 36.352V35.296C495.931 35.1787 495.974 35.0773 496.059 34.992C496.144 34.9067 496.246 34.864 496.363 34.864H497.083C497.638 34.864 498.011 34.7947 498.203 34.656C498.406 34.5067 498.507 34.336 498.507 34.144C498.507 33.952 498.39 33.7867 498.155 33.648C497.92 33.5093 497.563 33.44 497.083 33.44C496.72 33.44 496.438 33.4773 496.235 33.552C496.043 33.6267 495.883 33.7227 495.755 33.84C495.67 33.9253 495.59 34.0213 495.515 34.128C495.44 34.224 495.344 34.272 495.227 34.272H494.011C493.894 34.272 493.787 34.2293 493.691 34.144C493.606 34.0587 493.568 33.9573 493.579 33.84C493.59 33.616 493.664 33.3707 493.803 33.104C493.952 32.8267 494.171 32.5707 494.459 32.336C494.747 32.1013 495.104 31.9093 495.531 31.76C495.968 31.6 496.486 31.52 497.083 31.52C497.691 31.52 498.214 31.5893 498.651 31.728C499.088 31.8667 499.451 32.0587 499.739 32.304C500.027 32.5387 500.24 32.816 500.379 33.136C500.518 33.456 500.587 33.7973 500.587 34.16C500.587 34.4693 500.539 34.7627 500.443 35.04C500.347 35.3067 500.198 35.552 499.995 35.776C500.24 36.0107 500.427 36.2773 500.555 36.576C500.683 36.8747 500.747 37.1893 500.747 37.52C500.747 37.8827 500.672 38.224 500.523 38.544C500.384 38.864 500.16 39.1467 499.851 39.392C499.552 39.6267 499.174 39.8133 498.715 39.952C498.256 40.0907 497.712 40.16 497.083 40.16C496.454 40.16 495.91 40.0853 495.451 39.936C495.003 39.7867 494.63 39.6 494.331 39.376C494.032 39.152 493.808 38.912 493.659 38.656C493.52 38.3893 493.446 38.144 493.435 37.92ZM503.42 32.112C503.42 31.9947 503.463 31.8933 503.548 31.808C503.634 31.7227 503.735 31.68 503.852 31.68H509.02C509.138 31.68 509.239 31.7227 509.324 31.808C509.41 31.8933 509.452 31.9947 509.452 32.112V38.08H509.852C509.97 38.08 510.071 38.1227 510.156 38.208C510.242 38.2933 510.284 38.3947 510.284 38.512V41.328C510.284 41.4453 510.242 41.5467 510.156 41.632C510.071 41.7173 509.97 41.76 509.852 41.76H508.684C508.567 41.76 508.455 41.7173 508.348 41.632C508.252 41.5467 508.204 41.4453 508.204 41.328V40H503.932V41.328C503.932 41.4453 503.89 41.5467 503.804 41.632C503.719 41.7173 503.618 41.76 503.5 41.76H502.284C502.167 41.76 502.066 41.7173 501.98 41.632C501.895 41.5467 501.852 41.4453 501.852 41.328V38.512C501.852 38.3947 501.895 38.2933 501.98 38.208C502.066 38.1227 502.167 38.08 502.284 38.08H502.7C502.85 38.08 502.967 38.0427 503.052 37.968C503.148 37.8827 503.223 37.776 503.276 37.648C503.33 37.52 503.367 37.376 503.388 37.216C503.41 37.0453 503.42 36.88 503.42 36.72V32.112ZM507.372 38.08V33.6H505.5V36.928C505.5 37.184 505.479 37.4027 505.436 37.584C505.404 37.7653 505.346 37.9307 505.26 38.08H507.372Z" fill="#B8B8B8"/>
<path d="M360.266 22.836C359.665 22.836 359.089 23.0761 358.664 23.5035C358.239 23.931 358 24.5107 358 25.1152V42.7208C358 43.3252 358.239 43.905 358.664 44.3324C359.089 44.7599 359.665 45 360.266 45H379.734C380.335 45 380.911 44.7599 381.336 44.3324C381.761 43.905 382 43.3252 382 42.7208V25.1119C382 24.5075 381.761 23.9277 381.336 23.5003C380.911 23.0728 380.335 22.8327 379.734 22.8327H378.941V24.2751C378.941 24.738 378.758 25.1819 378.432 25.5092C378.107 25.8365 377.665 26.0204 377.205 26.0204C376.745 26.0204 376.304 25.8365 375.978 25.5092C375.653 25.1819 375.47 24.738 375.47 24.2751V22.836H364.527V24.2784C364.527 24.7413 364.344 25.1852 364.019 25.5125C363.693 25.8398 363.252 26.0236 362.792 26.0236C362.331 26.0236 361.89 25.8398 361.565 25.5125C361.239 25.1852 361.056 24.7413 361.056 24.2784V22.836H360.266ZM361.701 29.2113H378.299C378.414 29.2057 378.528 29.2228 378.635 29.2617C378.743 29.3006 378.841 29.3605 378.926 29.438C379.01 29.5155 379.078 29.6091 379.126 29.7132C379.174 29.8174 379.201 29.9301 379.206 30.0449V41.4411C379.194 41.6712 379.092 41.8872 378.922 42.0417C378.752 42.1961 378.528 42.2764 378.299 42.2649H361.697C361.469 42.2755 361.246 42.1948 361.077 42.0405C360.907 41.8861 360.806 41.6706 360.794 41.4411V30.0449C360.799 29.9304 360.826 29.818 360.874 29.714C360.921 29.6101 360.989 29.5167 361.073 29.4392C361.157 29.3618 361.256 29.3017 361.363 29.2626C361.47 29.2235 361.583 29.2061 361.697 29.2113H361.701Z" fill="#B8B8B8"/>
<path d="M361.963 20.7846V24.2784C361.976 24.4909 362.069 24.6903 362.224 24.8361C362.378 24.9819 362.582 25.063 362.793 25.063C363.005 25.063 363.209 24.9819 363.363 24.8361C363.517 24.6903 363.611 24.4909 363.624 24.2784V20.7846C363.611 20.5721 363.517 20.3727 363.363 20.2269C363.209 20.0812 363.005 20 362.793 20C362.582 20 362.378 20.0812 362.224 20.2269C362.069 20.3727 361.976 20.5721 361.963 20.7846Z" fill="#B8B8B8"/>
<path d="M376.376 20.7846V24.2784C376.39 24.4909 376.483 24.6903 376.637 24.8361C376.791 24.9819 376.995 25.063 377.207 25.063C377.419 25.063 377.622 24.9819 377.777 24.8361C377.931 24.6903 378.024 24.4909 378.037 24.2784V20.7846C378.024 20.5721 377.931 20.3727 377.777 20.2269C377.622 20.0812 377.419 20 377.207 20C376.995 20 376.791 20.0812 376.637 20.2269C376.483 20.3727 376.39 20.5721 376.376 20.7846Z" fill="#B8B8B8"/>
<path d="M366.774 30.6343H362.38V35.1537H366.774V30.6343Z" fill="#B8B8B8"/>
<path d="M372.304 30.6343H367.91V35.1537H372.304V30.6343Z" fill="#B8B8B8"/>
<path d="M366.774 36.1891H362.38V40.7085H366.774V36.1891Z" fill="#B8B8B8"/>
<path d="M372.304 36.1891H367.91V40.7085H372.304V36.1891Z" fill="#B8B8B8"/>
<path d="M378.037 30.6343H373.644V35.1537H378.037V30.6343Z" fill="#B8B8B8"/>
<path d="M378.037 36.1891H373.644V40.7085H378.037V36.1891Z" fill="#B8B8B8"/>
<path d="M1 10C1 5.02944 5.02944 1 10 1H329V64H9.99999C5.02943 64 1 59.9706 1 55V10Z" fill="white" stroke="#00D1FF" stroke-width="2"/>
<path d="M66.744 39.328C66.7973 39.3813 66.8293 39.4293 66.84 39.472C66.8507 39.5147 66.856 39.5467 66.856 39.568C66.856 39.6853 66.8133 39.7867 66.728 39.872C66.6427 39.9573 66.5413 40 66.424 40H64.904C64.6907 40 64.52 39.9467 64.392 39.84C64.264 39.7227 64.1893 39.6533 64.168 39.632L60.408 35.392V39.568C60.408 39.6853 60.3653 39.7867 60.28 39.872C60.1947 39.9573 60.0933 40 59.976 40H58.68C58.5627 40 58.4613 39.9573 58.376 39.872C58.2907 39.7867 58.248 39.6853 58.248 39.568V29.232C58.248 29.1147 58.2907 29.0133 58.376 28.928C58.4613 28.8427 58.5627 28.8 58.68 28.8H59.976C60.0933 28.8 60.1947 28.8427 60.28 28.928C60.3653 29.0133 60.408 29.1147 60.408 29.232V32.992L63.896 29.152C63.992 29.0453 64.0933 28.96 64.2 28.896C64.3067 28.832 64.4453 28.8 64.616 28.8H66.088C66.2053 28.8 66.3067 28.8427 66.392 28.928C66.4773 29.0133 66.52 29.1147 66.52 29.232C66.52 29.3173 66.488 29.3973 66.424 29.472L62.12 34.16L66.744 39.328ZM68.4606 41.12C68.7486 41.12 68.9886 41.04 69.1806 40.88C69.3726 40.7307 69.5273 40.512 69.6446 40.224L69.8366 39.712L66.6046 32.224C66.594 32.192 66.5886 32.1547 66.5886 32.112C66.5886 31.9947 66.6313 31.8933 66.7166 31.808C66.802 31.7227 66.9033 31.68 67.0206 31.68H68.2206C68.3486 31.68 68.4606 31.7227 68.5566 31.808C68.6526 31.8933 68.7166 31.9787 68.7486 32.064L70.9406 37.168L73.1326 32.064C73.1646 31.9787 73.2286 31.8933 73.3246 31.808C73.4206 31.7227 73.5326 31.68 73.6606 31.68H74.8606C74.978 31.68 75.0793 31.7227 75.1646 31.808C75.25 31.8933 75.2926 31.9947 75.2926 32.112C75.2926 32.1547 75.2873 32.192 75.2766 32.224L71.8526 40.224C71.6606 40.672 71.4686 41.0667 71.2766 41.408C71.0846 41.76 70.866 42.0533 70.6206 42.288C70.386 42.5333 70.114 42.72 69.8046 42.848C69.506 42.976 69.1486 43.04 68.7326 43.04H67.8846C67.7673 43.04 67.666 42.9973 67.5806 42.912C67.4953 42.8267 67.4526 42.7253 67.4526 42.608V41.552C67.4526 41.4347 67.4953 41.3333 67.5806 41.248C67.666 41.1627 67.7673 41.12 67.8846 41.12H68.4606ZM77.1548 32.112C77.1548 31.9947 77.1974 31.8933 77.2828 31.808C77.3681 31.7227 77.4694 31.68 77.5868 31.68H82.7548C82.8721 31.68 82.9734 31.7227 83.0588 31.808C83.1441 31.8933 83.1868 31.9947 83.1868 32.112V38.08H83.5868C83.7041 38.08 83.8054 38.1227 83.8908 38.208C83.9761 38.2933 84.0188 38.3947 84.0188 38.512V41.328C84.0188 41.4453 83.9761 41.5467 83.8908 41.632C83.8054 41.7173 83.7041 41.76 83.5868 41.76H82.4188C82.3014 41.76 82.1894 41.7173 82.0828 41.632C81.9868 41.5467 81.9388 41.4453 81.9388 41.328V40H77.6668V41.328C77.6668 41.4453 77.6241 41.5467 77.5388 41.632C77.4534 41.7173 77.3521 41.76 77.2348 41.76H76.0188C75.9014 41.76 75.8001 41.7173 75.7148 41.632C75.6294 41.5467 75.5868 41.4453 75.5868 41.328V38.512C75.5868 38.3947 75.6294 38.2933 75.7148 38.208C75.8001 38.1227 75.9014 38.08 76.0188 38.08H76.4348C76.5841 38.08 76.7014 38.0427 76.7868 37.968C76.8828 37.8827 76.9574 37.776 77.0108 37.648C77.0641 37.52 77.1014 37.376 77.1228 37.216C77.1441 37.0453 77.1548 36.88 77.1548 36.72V32.112ZM81.1068 38.08V33.6H79.2348V36.928C79.2348 37.184 79.2134 37.4027 79.1708 37.584C79.1388 37.7653 79.0801 37.9307 78.9948 38.08H81.1068ZM85.8224 33.728C85.865 33.504 85.961 33.264 86.1104 33.008C86.2704 32.752 86.489 32.512 86.7664 32.288C87.0544 32.064 87.401 31.8827 87.8064 31.744C88.2224 31.5947 88.7024 31.52 89.2464 31.52C89.7904 31.52 90.281 31.5947 90.7184 31.744C91.1557 31.8827 91.529 32.0907 91.8384 32.368C92.1584 32.6453 92.4037 32.9973 92.5744 33.424C92.745 33.84 92.8304 34.32 92.8304 34.864V39.568C92.8304 39.6853 92.7877 39.7867 92.7024 39.872C92.617 39.9573 92.5157 40 92.3984 40H91.1824C91.065 40 90.9637 39.9573 90.8784 39.872C90.793 39.7867 90.7504 39.6853 90.7504 39.568V39.04C90.5264 39.3493 90.201 39.616 89.7744 39.84C89.3584 40.0533 88.825 40.16 88.1744 40.16C87.7157 40.16 87.305 40.1013 86.9424 39.984C86.5797 39.856 86.2757 39.68 86.0304 39.456C85.785 39.232 85.593 38.9707 85.4544 38.672C85.3264 38.3627 85.2624 38.0267 85.2624 37.664C85.2624 36.928 85.5237 36.352 86.0464 35.936C86.569 35.52 87.2677 35.2373 88.1424 35.088L90.7504 34.64C90.7504 34.2027 90.6064 33.8933 90.3184 33.712C90.0304 33.5307 89.673 33.44 89.2464 33.44C88.9797 33.44 88.7717 33.4773 88.6224 33.552C88.473 33.6267 88.329 33.728 88.1904 33.856C88.0944 33.9413 88.0037 34 87.9184 34.032C87.8437 34.064 87.7584 34.08 87.6624 34.08H86.1744C86.0677 34.08 85.977 34.048 85.9024 33.984C85.8277 33.92 85.801 33.8347 85.8224 33.728ZM88.4944 38.24C88.857 38.24 89.177 38.192 89.4544 38.096C89.7424 37.9893 89.9824 37.8507 90.1744 37.68C90.3664 37.5093 90.5104 37.3173 90.6064 37.104C90.7024 36.8907 90.7504 36.672 90.7504 36.448V36.288L88.5744 36.672C88.137 36.7467 87.8224 36.8587 87.6304 37.008C87.4384 37.1467 87.3424 37.3387 87.3424 37.584C87.3424 37.808 87.4544 37.9733 87.6784 38.08C87.913 38.1867 88.185 38.24 88.4944 38.24ZM104.092 34.192C104.092 33.9467 104.017 33.7813 103.868 33.696C103.719 33.6 103.468 33.552 103.116 33.552H100.684V34.832H103.116C103.468 34.832 103.719 34.7893 103.868 34.704C104.017 34.608 104.092 34.4373 104.092 34.192ZM100.684 38.128H103.212C103.564 38.128 103.825 38.08 103.996 37.984C104.167 37.8773 104.252 37.6907 104.252 37.424C104.252 37.1573 104.167 36.9707 103.996 36.864C103.825 36.7573 103.564 36.704 103.212 36.704H100.684V38.128ZM98.924 40C98.8387 40 98.764 39.968 98.7 39.904C98.636 39.84 98.604 39.7653 98.604 39.68V32C98.604 31.9147 98.636 31.84 98.7 31.776C98.764 31.712 98.8387 31.68 98.924 31.68H103.42C103.825 31.68 104.199 31.7387 104.54 31.856C104.881 31.9627 105.169 32.1173 105.404 32.32C105.649 32.512 105.836 32.752 105.964 33.04C106.103 33.3173 106.172 33.6267 106.172 33.968C106.172 34.4267 106.097 34.784 105.948 35.04C105.799 35.296 105.607 35.504 105.372 35.664C105.735 35.888 105.985 36.16 106.124 36.48C106.263 36.8 106.332 37.168 106.332 37.584C106.332 37.9787 106.263 38.3307 106.124 38.64C105.996 38.9387 105.815 39.1893 105.58 39.392C105.345 39.5947 105.068 39.7493 104.748 39.856C104.428 39.952 104.076 40 103.692 40H98.924ZM116.293 32.112C116.293 31.9947 116.336 31.8933 116.421 31.808C116.507 31.7227 116.608 31.68 116.725 31.68H117.941C118.059 31.68 118.16 31.7227 118.245 31.808C118.331 31.8933 118.373 31.9947 118.373 32.112V39.568C118.373 39.6853 118.331 39.7867 118.245 39.872C118.16 39.9573 118.059 40 117.941 40H116.725C116.608 40 116.507 39.9573 116.421 39.872C116.336 39.7867 116.293 39.6853 116.293 39.568V32.112ZM115.493 36.768C115.493 37.248 115.403 37.6907 115.221 38.096C115.051 38.4907 114.811 38.832 114.501 39.12C114.192 39.3973 113.819 39.616 113.381 39.776C112.944 39.9253 112.464 40 111.941 40H108.645C108.528 40 108.427 39.9573 108.341 39.872C108.256 39.7867 108.213 39.6853 108.213 39.568V32.112C108.213 31.9947 108.256 31.8933 108.341 31.808C108.427 31.7227 108.528 31.68 108.645 31.68H109.861C109.979 31.68 110.08 31.7227 110.165 31.808C110.251 31.8933 110.293 31.9947 110.293 32.112V33.536H111.941C112.464 33.536 112.944 33.616 113.381 33.776C113.819 33.9253 114.192 34.144 114.501 34.432C114.811 34.7093 115.051 35.0507 115.221 35.456C115.403 35.8507 115.493 36.288 115.493 36.768ZM110.293 38.08H111.669C111.936 38.08 112.176 38.064 112.389 38.032C112.613 37.9893 112.805 37.92 112.965 37.824C113.125 37.728 113.248 37.5947 113.333 37.424C113.419 37.2533 113.461 37.0347 113.461 36.768C113.461 36.5013 113.419 36.2827 113.333 36.112C113.248 35.9413 113.125 35.808 112.965 35.712C112.805 35.616 112.613 35.552 112.389 35.52C112.176 35.4773 111.936 35.456 111.669 35.456H110.293V38.08ZM127.781 37.36L125.893 39.696C125.786 39.824 125.674 39.9093 125.557 39.952C125.45 39.984 125.328 40 125.189 40H123.957C123.84 40 123.738 39.9573 123.653 39.872C123.578 39.7867 123.541 39.68 123.541 39.552C123.541 39.4667 123.562 39.392 123.605 39.328L126.485 35.76L123.733 32.352C123.69 32.288 123.669 32.2133 123.669 32.128C123.669 32 123.706 31.8933 123.781 31.808C123.866 31.7227 123.968 31.68 124.085 31.68H125.317C125.456 31.68 125.578 31.7013 125.685 31.744C125.802 31.776 125.914 31.856 126.021 31.984L127.829 34.224L129.621 31.984C129.728 31.856 129.834 31.776 129.941 31.744C130.058 31.7013 130.186 31.68 130.325 31.68H131.557C131.674 31.68 131.77 31.7227 131.845 31.808C131.93 31.8933 131.973 32 131.973 32.128C131.973 32.2133 131.952 32.288 131.909 32.352L129.125 35.824L131.973 39.328C132.016 39.392 132.037 39.4667 132.037 39.552C132.037 39.68 131.994 39.7867 131.909 39.872C131.834 39.9573 131.738 40 131.621 40H130.389C130.25 40 130.122 39.984 130.005 39.952C129.898 39.9093 129.792 39.824 129.685 39.696L127.781 37.36ZM136.94 31.52C137.527 31.52 138.055 31.6107 138.524 31.792C139.004 31.9733 139.415 32.224 139.756 32.544C140.108 32.864 140.385 33.2373 140.588 33.664C140.801 34.0907 140.924 34.5493 140.956 35.04C140.967 35.136 140.972 35.2587 140.972 35.408C140.972 35.5573 140.972 35.7067 140.972 35.856C140.972 36.0053 140.972 36.1547 140.972 36.304C140.972 36.4427 140.967 36.56 140.956 36.656C140.913 37.1467 140.791 37.6053 140.588 38.032C140.385 38.4587 140.108 38.832 139.756 39.152C139.415 39.4613 139.004 39.7067 138.524 39.888C138.055 40.0693 137.527 40.16 136.94 40.16C136.353 40.16 135.82 40.0693 135.34 39.888C134.871 39.7067 134.46 39.4613 134.108 39.152C133.767 38.832 133.495 38.4587 133.292 38.032C133.089 37.6053 132.967 37.1467 132.924 36.656C132.913 36.56 132.903 36.4427 132.892 36.304C132.892 36.1547 132.892 36.0053 132.892 35.856C132.892 35.7067 132.892 35.5573 132.892 35.408C132.903 35.2587 132.913 35.136 132.924 35.04C132.956 34.5493 133.073 34.0907 133.276 33.664C133.489 33.2373 133.767 32.864 134.108 32.544C134.46 32.224 134.871 31.9733 135.34 31.792C135.82 31.6107 136.353 31.52 136.94 31.52ZM138.876 35.12C138.844 34.7893 138.764 34.5173 138.636 34.304C138.519 34.08 138.369 33.904 138.188 33.776C138.007 33.648 137.809 33.5627 137.596 33.52C137.383 33.4667 137.164 33.44 136.94 33.44C136.716 33.44 136.497 33.4667 136.284 33.52C136.071 33.5627 135.873 33.648 135.692 33.776C135.511 33.904 135.356 34.08 135.228 34.304C135.111 34.5173 135.036 34.7893 135.004 35.12C134.993 35.2053 134.983 35.312 134.972 35.44C134.972 35.568 134.972 35.7013 134.972 35.84C134.972 35.9787 134.972 36.1173 134.972 36.256C134.983 36.384 134.993 36.4853 135.004 36.56C135.036 36.8907 135.111 37.168 135.228 37.392C135.356 37.6053 135.511 37.776 135.692 37.904C135.873 38.032 136.071 38.1227 136.284 38.176C136.497 38.2187 136.716 38.24 136.94 38.24C137.164 38.24 137.383 38.2187 137.596 38.176C137.809 38.1227 138.007 38.032 138.188 37.904C138.369 37.776 138.519 37.6053 138.636 37.392C138.764 37.168 138.844 36.8907 138.876 36.56C138.887 36.4853 138.892 36.384 138.892 36.256C138.892 36.1173 138.892 35.9787 138.892 35.84C138.892 35.7013 138.892 35.568 138.892 35.44C138.892 35.312 138.887 35.2053 138.876 35.12ZM149.579 31.68C149.696 31.68 149.797 31.7227 149.883 31.808C149.968 31.8933 150.01 31.9947 150.01 32.112V33.168C150.01 33.2853 149.968 33.3867 149.883 33.472C149.797 33.5573 149.696 33.6 149.579 33.6H146.955V39.568C146.955 39.6853 146.912 39.7867 146.827 39.872C146.741 39.9573 146.64 40 146.523 40H145.307C145.189 40 145.088 39.9573 145.003 39.872C144.917 39.7867 144.875 39.6853 144.875 39.568V33.6H142.251C142.133 33.6 142.032 33.5573 141.947 33.472C141.861 33.3867 141.819 33.2853 141.819 33.168V32.112C141.819 31.9947 141.861 31.8933 141.947 31.808C142.032 31.7227 142.133 31.68 142.251 31.68H149.579ZM157.706 40C157.588 40 157.487 39.9573 157.402 39.872C157.316 39.7867 157.274 39.6853 157.274 39.568V35.088L153.386 39.824C153.29 39.9413 153.167 40 153.018 40H151.802C151.684 40 151.583 39.9573 151.498 39.872C151.412 39.7867 151.37 39.6853 151.37 39.568V32.112C151.37 31.9947 151.412 31.8933 151.498 31.808C151.583 31.7227 151.684 31.68 151.802 31.68H153.018C153.135 31.68 153.236 31.7227 153.322 31.808C153.407 31.8933 153.45 31.9947 153.45 32.112V36.624L157.338 31.856C157.434 31.7387 157.556 31.68 157.706 31.68H158.922C159.039 31.68 159.14 31.7227 159.226 31.808C159.311 31.8933 159.354 31.9947 159.354 32.112V39.568C159.354 39.6853 159.311 39.7867 159.226 39.872C159.14 39.9573 159.039 40 158.922 40H157.706ZM168.469 31.68C168.586 31.68 168.688 31.7227 168.773 31.808C168.858 31.8933 168.901 31.9947 168.901 32.112V33.168C168.901 33.2853 168.858 33.3867 168.773 33.472C168.688 33.5573 168.586 33.6 168.469 33.6H165.845V39.568C165.845 39.6853 165.802 39.7867 165.717 39.872C165.632 39.9573 165.53 40 165.413 40H164.197C164.08 40 163.978 39.9573 163.893 39.872C163.808 39.7867 163.765 39.6853 163.765 39.568V33.6H161.141C161.024 33.6 160.922 33.5573 160.837 33.472C160.752 33.3867 160.709 33.2853 160.709 33.168V32.112C160.709 31.9947 160.752 31.8933 160.837 31.808C160.922 31.7227 161.024 31.68 161.141 31.68H168.469ZM169.719 35.84C169.719 35.2427 169.81 34.6827 169.991 34.16C170.173 33.6267 170.434 33.168 170.775 32.784C171.117 32.3893 171.527 32.08 172.007 31.856C172.498 31.632 173.042 31.52 173.639 31.52C174.237 31.52 174.775 31.632 175.255 31.856C175.746 32.0693 176.162 32.3627 176.503 32.736C176.845 33.0987 177.106 33.5307 177.287 34.032C177.479 34.5227 177.575 35.04 177.575 35.584V36.304C177.575 36.4213 177.533 36.5227 177.447 36.608C177.362 36.6933 177.261 36.736 177.143 36.736H171.799C171.799 36.9813 171.847 37.2 171.943 37.392C172.05 37.5733 172.189 37.728 172.359 37.856C172.53 37.984 172.727 38.08 172.951 38.144C173.175 38.208 173.405 38.24 173.639 38.24C173.981 38.24 174.258 38.208 174.471 38.144C174.685 38.0693 174.861 37.9787 174.999 37.872C175.117 37.7867 175.213 37.728 175.287 37.696C175.362 37.664 175.463 37.648 175.591 37.648H176.871C176.989 37.648 177.09 37.6907 177.175 37.776C177.271 37.8613 177.314 37.9627 177.303 38.08C177.293 38.2293 177.207 38.4213 177.047 38.656C176.898 38.8907 176.669 39.12 176.359 39.344C176.05 39.568 175.666 39.76 175.207 39.92C174.759 40.08 174.237 40.16 173.639 40.16C173.042 40.16 172.498 40.0587 172.007 39.856C171.527 39.6427 171.117 39.344 170.775 38.96C170.434 38.576 170.173 38.1227 169.991 37.6C169.81 37.0667 169.719 36.48 169.719 35.84ZM173.639 33.44C173.33 33.44 173.063 33.488 172.839 33.584C172.626 33.6693 172.445 33.7867 172.295 33.936C172.146 34.0747 172.029 34.2347 171.943 34.416C171.869 34.5867 171.821 34.752 171.799 34.912H175.415C175.394 34.752 175.351 34.5867 175.287 34.416C175.234 34.2347 175.138 34.0747 174.999 33.936C174.871 33.7867 174.695 33.6693 174.471 33.584C174.258 33.488 173.981 33.44 173.639 33.44ZM190.435 31.68C190.553 31.68 190.654 31.7227 190.739 31.808C190.825 31.8933 190.867 31.9947 190.867 32.112V39.568C190.867 39.6853 190.825 39.7867 190.739 39.872C190.654 39.9573 190.553 40 190.435 40H189.219C189.102 40 189.001 39.9573 188.915 39.872C188.83 39.7867 188.787 39.6853 188.787 39.568V33.6H185.043V39.568C185.043 39.6853 185.001 39.7867 184.915 39.872C184.83 39.9573 184.729 40 184.611 40H183.395C183.278 40 183.177 39.9573 183.091 39.872C183.006 39.7867 182.963 39.6853 182.963 39.568V32.112C182.963 31.9947 183.006 31.8933 183.091 31.808C183.177 31.7227 183.278 31.68 183.395 31.68H190.435ZM196.737 31.52C197.323 31.52 197.851 31.6107 198.321 31.792C198.801 31.9733 199.211 32.224 199.553 32.544C199.905 32.864 200.182 33.2373 200.385 33.664C200.598 34.0907 200.721 34.5493 200.753 35.04C200.763 35.136 200.769 35.2587 200.769 35.408C200.769 35.5573 200.769 35.7067 200.769 35.856C200.769 36.0053 200.769 36.1547 200.769 36.304C200.769 36.4427 200.763 36.56 200.753 36.656C200.71 37.1467 200.587 37.6053 200.385 38.032C200.182 38.4587 199.905 38.832 199.553 39.152C199.211 39.4613 198.801 39.7067 198.321 39.888C197.851 40.0693 197.323 40.16 196.737 40.16C196.15 40.16 195.617 40.0693 195.137 39.888C194.667 39.7067 194.257 39.4613 193.905 39.152C193.563 38.832 193.291 38.4587 193.089 38.032C192.886 37.6053 192.763 37.1467 192.721 36.656C192.71 36.56 192.699 36.4427 192.689 36.304C192.689 36.1547 192.689 36.0053 192.689 35.856C192.689 35.7067 192.689 35.5573 192.689 35.408C192.699 35.2587 192.71 35.136 192.721 35.04C192.753 34.5493 192.87 34.0907 193.073 33.664C193.286 33.2373 193.563 32.864 193.905 32.544C194.257 32.224 194.667 31.9733 195.137 31.792C195.617 31.6107 196.15 31.52 196.737 31.52ZM198.673 35.12C198.641 34.7893 198.561 34.5173 198.433 34.304C198.315 34.08 198.166 33.904 197.985 33.776C197.803 33.648 197.606 33.5627 197.393 33.52C197.179 33.4667 196.961 33.44 196.737 33.44C196.513 33.44 196.294 33.4667 196.081 33.52C195.867 33.5627 195.67 33.648 195.489 33.776C195.307 33.904 195.153 34.08 195.025 34.304C194.907 34.5173 194.833 34.7893 194.801 35.12C194.79 35.2053 194.779 35.312 194.769 35.44C194.769 35.568 194.769 35.7013 194.769 35.84C194.769 35.9787 194.769 36.1173 194.769 36.256C194.779 36.384 194.79 36.4853 194.801 36.56C194.833 36.8907 194.907 37.168 195.025 37.392C195.153 37.6053 195.307 37.776 195.489 37.904C195.67 38.032 195.867 38.1227 196.081 38.176C196.294 38.2187 196.513 38.24 196.737 38.24C196.961 38.24 197.179 38.2187 197.393 38.176C197.606 38.1227 197.803 38.032 197.985 37.904C198.166 37.776 198.315 37.6053 198.433 37.392C198.561 37.168 198.641 36.8907 198.673 36.56C198.683 36.4853 198.689 36.384 198.689 36.256C198.689 36.1173 198.689 35.9787 198.689 35.84C198.689 35.7013 198.689 35.568 198.689 35.44C198.689 35.312 198.683 35.2053 198.673 35.12ZM202.172 35.84C202.172 35.2427 202.263 34.6827 202.444 34.16C202.626 33.6267 202.887 33.168 203.228 32.784C203.57 32.3893 203.98 32.08 204.46 31.856C204.951 31.632 205.495 31.52 206.092 31.52C206.69 31.52 207.228 31.632 207.708 31.856C208.199 32.0693 208.615 32.3627 208.956 32.736C209.298 33.0987 209.559 33.5307 209.74 34.032C209.932 34.5227 210.028 35.04 210.028 35.584V36.304C210.028 36.4213 209.986 36.5227 209.9 36.608C209.815 36.6933 209.714 36.736 209.596 36.736H204.252C204.252 36.9813 204.3 37.2 204.396 37.392C204.503 37.5733 204.642 37.728 204.812 37.856C204.983 37.984 205.18 38.08 205.404 38.144C205.628 38.208 205.858 38.24 206.092 38.24C206.434 38.24 206.711 38.208 206.924 38.144C207.138 38.0693 207.314 37.9787 207.452 37.872C207.57 37.7867 207.666 37.728 207.74 37.696C207.815 37.664 207.916 37.648 208.044 37.648H209.324C209.442 37.648 209.543 37.6907 209.628 37.776C209.724 37.8613 209.767 37.9627 209.756 38.08C209.746 38.2293 209.66 38.4213 209.5 38.656C209.351 38.8907 209.122 39.12 208.812 39.344C208.503 39.568 208.119 39.76 207.66 39.92C207.212 40.08 206.69 40.16 206.092 40.16C205.495 40.16 204.951 40.0587 204.46 39.856C203.98 39.6427 203.57 39.344 203.228 38.96C202.887 38.576 202.626 38.1227 202.444 37.6C202.263 37.0667 202.172 36.48 202.172 35.84ZM206.092 33.44C205.783 33.44 205.516 33.488 205.292 33.584C205.079 33.6693 204.898 33.7867 204.748 33.936C204.599 34.0747 204.482 34.2347 204.396 34.416C204.322 34.5867 204.274 34.752 204.252 34.912H207.868C207.847 34.752 207.804 34.5867 207.74 34.416C207.687 34.2347 207.591 34.0747 207.452 33.936C207.324 33.7867 207.148 33.6693 206.924 33.584C206.711 33.488 206.434 33.44 206.092 33.44ZM215.094 37.36L213.206 39.696C213.099 39.824 212.987 39.9093 212.87 39.952C212.763 39.984 212.64 40 212.502 40H211.27C211.152 40 211.051 39.9573 210.965 39.872C210.891 39.7867 210.854 39.68 210.854 39.552C210.854 39.4667 210.875 39.392 210.918 39.328L213.798 35.76L211.046 32.352C211.003 32.288 210.982 32.2133 210.982 32.128C210.982 32 211.019 31.8933 211.094 31.808C211.179 31.7227 211.28 31.68 211.398 31.68H212.63C212.768 31.68 212.891 31.7013 212.998 31.744C213.115 31.776 213.227 31.856 213.334 31.984L215.141 34.224L216.934 31.984C217.04 31.856 217.147 31.776 217.254 31.744C217.371 31.7013 217.499 31.68 217.638 31.68H218.87C218.987 31.68 219.083 31.7227 219.158 31.808C219.243 31.8933 219.286 32 219.286 32.128C219.286 32.2133 219.264 32.288 219.222 32.352L216.438 35.824L219.286 39.328C219.328 39.392 219.35 39.4667 219.35 39.552C219.35 39.68 219.307 39.7867 219.222 39.872C219.147 39.9573 219.051 40 218.934 40H217.702C217.563 40 217.435 39.984 217.318 39.952C217.211 39.9093 217.104 39.824 216.998 39.696L215.094 37.36ZM220.744 33.728C220.787 33.504 220.883 33.264 221.032 33.008C221.192 32.752 221.411 32.512 221.688 32.288C221.976 32.064 222.323 31.8827 222.728 31.744C223.144 31.5947 223.624 31.52 224.168 31.52C224.712 31.52 225.203 31.5947 225.64 31.744C226.078 31.8827 226.451 32.0907 226.76 32.368C227.08 32.6453 227.326 32.9973 227.496 33.424C227.667 33.84 227.752 34.32 227.752 34.864V39.568C227.752 39.6853 227.71 39.7867 227.624 39.872C227.539 39.9573 227.438 40 227.32 40H226.104C225.987 40 225.886 39.9573 225.8 39.872C225.715 39.7867 225.672 39.6853 225.672 39.568V39.04C225.448 39.3493 225.123 39.616 224.696 39.84C224.28 40.0533 223.747 40.16 223.096 40.16C222.638 40.16 222.227 40.1013 221.864 39.984C221.502 39.856 221.198 39.68 220.952 39.456C220.707 39.232 220.515 38.9707 220.376 38.672C220.248 38.3627 220.184 38.0267 220.184 37.664C220.184 36.928 220.446 36.352 220.968 35.936C221.491 35.52 222.19 35.2373 223.064 35.088L225.672 34.64C225.672 34.2027 225.528 33.8933 225.24 33.712C224.952 33.5307 224.595 33.44 224.168 33.44C223.902 33.44 223.694 33.4773 223.544 33.552C223.395 33.6267 223.251 33.728 223.112 33.856C223.016 33.9413 222.926 34 222.84 34.032C222.766 34.064 222.68 34.08 222.584 34.08H221.096C220.99 34.08 220.899 34.048 220.824 33.984C220.75 33.92 220.723 33.8347 220.744 33.728ZM223.416 38.24C223.779 38.24 224.099 38.192 224.376 38.096C224.664 37.9893 224.904 37.8507 225.096 37.68C225.288 37.5093 225.432 37.3173 225.528 37.104C225.624 36.8907 225.672 36.672 225.672 36.448V36.288L223.496 36.672C223.059 36.7467 222.744 36.8587 222.552 37.008C222.36 37.1467 222.264 37.3387 222.264 37.584C222.264 37.808 222.376 37.9733 222.6 38.08C222.835 38.1867 223.107 38.24 223.416 38.24ZM236.704 31.68C236.821 31.68 236.922 31.7227 237.008 31.808C237.093 31.8933 237.135 31.9947 237.135 32.112V33.168C237.135 33.2853 237.093 33.3867 237.008 33.472C236.922 33.5573 236.821 33.6 236.704 33.6H234.08V39.568C234.08 39.6853 234.037 39.7867 233.952 39.872C233.866 39.9573 233.765 40 233.648 40H232.432C232.314 40 232.213 39.9573 232.128 39.872C232.042 39.7867 232 39.6853 232 39.568V33.6H229.376C229.258 33.6 229.157 33.5573 229.072 33.472C228.986 33.3867 228.944 33.2853 228.944 33.168V32.112C228.944 31.9947 228.986 31.8933 229.072 31.808C229.157 31.7227 229.258 31.68 229.376 31.68H236.704ZM245.775 36.768C245.775 37.248 245.684 37.6907 245.503 38.096C245.332 38.4907 245.092 38.832 244.783 39.12C244.473 39.3973 244.1 39.616 243.663 39.776C243.225 39.9253 242.745 40 242.223 40H238.927C238.809 40 238.708 39.9573 238.623 39.872C238.537 39.7867 238.495 39.6853 238.495 39.568V32.112C238.495 31.9947 238.537 31.8933 238.623 31.808C238.708 31.7227 238.809 31.68 238.927 31.68H240.143C240.26 31.68 240.361 31.7227 240.447 31.808C240.532 31.8933 240.575 31.9947 240.575 32.112V33.536H242.223C242.745 33.536 243.225 33.616 243.663 33.776C244.1 33.9253 244.473 34.144 244.783 34.432C245.092 34.7093 245.332 35.0507 245.503 35.456C245.684 35.8507 245.775 36.288 245.775 36.768ZM240.575 38.08H241.951C242.217 38.08 242.457 38.064 242.671 38.032C242.895 37.9893 243.087 37.92 243.247 37.824C243.407 37.728 243.529 37.5947 243.615 37.424C243.7 37.2533 243.743 37.0347 243.743 36.768C243.743 36.5013 243.7 36.2827 243.615 36.112C243.529 35.9413 243.407 35.808 243.247 35.712C243.087 35.616 242.895 35.552 242.671 35.52C242.457 35.4773 242.217 35.456 241.951 35.456H240.575V38.08ZM250.763 37.728C250.88 37.728 250.981 37.7707 251.067 37.856C251.152 37.9413 251.195 38.0427 251.195 38.16V39.568C251.195 39.6853 251.152 39.7867 251.067 39.872C250.981 39.9573 250.88 40 250.763 40H249.387C249.269 40 249.168 39.9573 249.083 39.872C248.997 39.7867 248.955 39.6853 248.955 39.568V38.16C248.955 38.0427 248.997 37.9413 249.083 37.856C249.168 37.7707 249.269 37.728 249.387 37.728H250.763ZM250.123 28.64C250.624 28.64 251.109 28.7093 251.579 28.848C252.059 28.9867 252.48 29.1947 252.843 29.472C253.216 29.7387 253.515 30.0747 253.739 30.48C253.963 30.8747 254.075 31.3333 254.075 31.856C254.075 32.2827 254.005 32.656 253.867 32.976C253.739 33.2853 253.568 33.568 253.355 33.824C253.152 34.0693 252.928 34.2987 252.683 34.512C252.437 34.7147 252.203 34.912 251.979 35.104C251.765 35.2853 251.573 35.4773 251.403 35.68C251.243 35.8827 251.147 36.1013 251.115 36.336C251.093 36.4533 251.045 36.5547 250.971 36.64C250.896 36.7253 250.8 36.768 250.683 36.768H249.467C249.349 36.768 249.243 36.7253 249.147 36.64C249.061 36.5547 249.024 36.4533 249.035 36.336C249.056 35.92 249.141 35.5573 249.291 35.248C249.451 34.928 249.637 34.6453 249.851 34.4C250.075 34.144 250.309 33.9147 250.555 33.712C250.811 33.5093 251.045 33.3173 251.259 33.136C251.472 32.944 251.648 32.7573 251.787 32.576C251.925 32.384 251.995 32.176 251.995 31.952C251.995 31.5467 251.824 31.216 251.483 30.96C251.141 30.6933 250.688 30.56 250.123 30.56C249.216 30.56 248.549 31.0133 248.123 31.92C248.069 32.0373 248.011 32.128 247.947 32.192C247.893 32.2453 247.797 32.272 247.659 32.272H246.363C246.267 32.272 246.181 32.24 246.107 32.176C246.043 32.112 246.011 32.0267 246.011 31.92C246.021 31.5467 246.133 31.168 246.347 30.784C246.571 30.3893 246.864 30.0373 247.227 29.728C247.6 29.408 248.032 29.1467 248.523 28.944C249.024 28.7413 249.557 28.64 250.123 28.64Z" fill="#B8B8B8"/>
<path d="M42.4784 27.4592C42.4724 27.3992 42.4631 27.3396 42.4506 27.2805C42.4506 27.2374 42.4321 27.1943 42.4197 27.1511L42.3827 27.0094C42.3827 26.9724 42.3642 26.9324 42.3518 26.8954C42.3355 26.8388 42.316 26.7833 42.2932 26.729L42.2438 26.5996C42.2438 26.575 42.2284 26.5503 42.2191 26.5257C42.1852 26.4486 42.1481 26.3747 42.1111 26.3007L42.071 26.2176C42.0577 26.2003 42.0464 26.1817 42.037 26.1621C41.9876 26.0727 41.9321 25.9865 41.8765 25.9033L41.8611 25.854C41.7839 25.74 41.716 25.6537 41.6451 25.5644L41.6204 25.5459C41.5432 25.4534 41.4599 25.361 41.3704 25.2717L41.3457 25.2378C40.5971 24.4876 39.5823 24.0624 38.5216 24.0546H38.4753C37.4005 24.0546 36.3698 24.4808 35.6098 25.2395C34.8498 25.9982 34.4229 27.0272 34.4229 28.1001C34.4229 29.173 34.8498 30.202 35.6098 30.9607C36.3698 31.7194 37.4005 32.1456 38.4753 32.1456H38.5247C39.0525 32.1422 39.5745 32.0348 40.0607 31.8297C40.5469 31.6245 40.9877 31.3256 41.358 30.9501C41.4599 30.8454 41.5432 30.7529 41.6173 30.6636L41.6481 30.6204C41.716 30.5372 41.7839 30.4479 41.8488 30.3524L41.8889 30.2846C41.9444 30.1983 42 30.1121 42.0494 30.0227L42.0679 29.9796C42.0794 29.9586 42.0897 29.937 42.0988 29.9149L42.1173 29.881C42.1512 29.8101 42.1883 29.7423 42.216 29.6715C42.216 29.6468 42.2346 29.6222 42.2438 29.6006L42.2932 29.465C42.316 29.4118 42.3355 29.3573 42.3518 29.3017C42.3518 29.2617 42.3734 29.2247 42.3827 29.1846L42.4197 29.0398C42.4329 28.9995 42.4432 28.9583 42.4506 28.9166C42.4506 28.855 42.4722 28.7964 42.4784 28.7379L42.5 28.5962C42.5015 28.5695 42.5015 28.5427 42.5 28.5161C42.5148 28.3789 42.522 28.2411 42.5216 28.1032C42.5222 27.9653 42.515 27.8274 42.5 27.6903C42.5015 27.6626 42.5015 27.6348 42.5 27.6071L42.4784 27.4592Z" fill="#B8B8B8"/>
<path d="M45.5617 33.3874C45.6018 33.3227 45.645 33.2518 45.7037 33.1624C45.7126 33.1524 45.7199 33.1409 45.7253 33.1285C45.8333 32.9283 45.9969 32.6356 46.0061 32.6202C46.6635 31.3409 47.0043 29.9231 47 28.4853C47 28.3292 47 28.1752 47 28.0232C47 27.9554 47 27.8907 47 27.826L46.9753 27.7027C46.9753 27.6596 46.9753 27.6165 46.9753 27.5795C46.9753 27.5425 46.9753 27.4686 46.9598 27.4162V27.2991L46.9413 27.1297C46.9413 27.0865 46.9413 27.0434 46.9197 27.0002L46.9012 26.8862C46.9012 26.8215 46.8827 26.7599 46.8703 26.6983C46.858 26.6367 46.8518 26.5966 46.8426 26.5473L46.8148 26.4118C46.8148 26.3655 46.7963 26.3193 46.7839 26.2731C46.7716 26.2269 46.753 26.1406 46.7345 26.0759L46.6666 25.9527V25.8541C46.6481 25.7832 46.6234 25.7123 46.6018 25.6415L46.5586 25.546C46.5502 25.5126 46.5399 25.4796 46.5277 25.4474C46.5061 25.3765 46.4784 25.3056 46.4537 25.2379L46.4197 25.1485C46.4103 25.116 46.3989 25.0841 46.3858 25.053C46.358 24.976 46.324 24.902 46.2932 24.825L46.2561 24.7418L46.2284 24.6709C46.1821 24.5693 46.1327 24.4707 46.0833 24.3628L46.0493 24.3135C46 24.2149 45.9475 24.1194 45.8827 24.0054L45.858 23.9592C45.7993 23.8575 45.7376 23.7589 45.6666 23.6511L45.645 23.6203C45.5802 23.5217 45.5154 23.4231 45.4413 23.3122L45.4197 23.2814C45.3456 23.1797 45.2716 23.0811 45.1944 22.9887L45.1759 22.964C45.0956 22.8623 45.0123 22.7637 44.9197 22.6559C44.8271 22.5481 44.7407 22.4618 44.6481 22.3694C43.1018 20.8165 40.9753 20 38.5 20C33.4969 20 30 23.4878 30 28.4853C29.9997 30.0289 30.3927 31.5472 31.142 32.8975L31.2716 33.1316C31.2706 33.1408 31.2706 33.1501 31.2716 33.1594L31.4846 33.4859C31.5093 33.5229 31.5309 33.5599 31.5432 33.5753L36.9969 42.6984L38.2562 44.8151C38.2896 44.8712 38.3371 44.9177 38.3939 44.9501C38.4506 44.9825 38.5148 44.9997 38.5802 45V45C38.6457 44.9985 38.7098 44.9804 38.7664 44.9476C38.8231 44.9147 38.8705 44.8681 38.9043 44.8121L40.1389 42.6984L45.4321 33.5876C45.4814 33.5198 45.5185 33.4551 45.5617 33.3874ZM43.2716 28.5808C43.2716 28.6271 43.2716 28.6702 43.2531 28.7133L43.2345 28.8273C43.2345 28.9044 43.216 28.9814 43.2006 29.0584C43.1852 29.1354 43.1728 29.1724 43.1574 29.231L43.1265 29.3542C43.1265 29.4066 43.0987 29.462 43.0833 29.5144C43.0679 29.5668 43.0339 29.6561 43.0061 29.727L42.966 29.8379C42.966 29.8749 42.9382 29.915 42.9228 29.9519C42.8858 30.0413 42.8426 30.1245 42.7994 30.2107L42.7623 30.2847C42.7498 30.3143 42.7353 30.3432 42.7191 30.371C42.6635 30.4788 42.5987 30.5805 42.5339 30.6791L42.4815 30.7623C42.4074 30.8701 42.3271 30.9779 42.2438 31.0704C42.2348 31.0873 42.2233 31.1029 42.2098 31.1166C42.1132 31.2311 42.0101 31.3402 41.9012 31.4432C41.46 31.8923 40.9344 32.25 40.3545 32.4959C39.7745 32.7417 39.1516 32.8709 38.5216 32.8759H38.4753C37.2215 32.8442 36.0297 32.3247 35.1541 31.4282C34.2785 30.5317 33.7885 29.3292 33.7885 28.0771C33.7885 26.825 34.2785 25.6225 35.1541 24.726C36.0297 23.8295 37.2215 23.31 38.4753 23.2783H38.5247C39.7902 23.2886 41 23.7994 41.8889 24.6987L41.9074 24.7202C42.0088 24.8175 42.1046 24.9204 42.1944 25.0283C42.2057 25.0409 42.216 25.0543 42.2253 25.0684C42.3117 25.1762 42.3919 25.2841 42.466 25.395C42.4812 25.4143 42.4946 25.435 42.5061 25.4566C42.5833 25.5799 42.6481 25.6815 42.7068 25.7863C42.7222 25.8171 42.7345 25.8448 42.7469 25.8756L42.7654 25.9126C42.821 26.0235 42.8673 26.1129 42.9074 26.2053C42.9074 26.2423 42.9382 26.2854 42.9506 26.3255L42.9907 26.4333C43.0185 26.5042 43.0432 26.572 43.0679 26.6428C43.0926 26.7137 43.0956 26.7507 43.1111 26.8061L43.1389 26.9263C43.1574 26.9859 43.1728 27.0444 43.1852 27.1019C43.1852 27.1759 43.2098 27.2529 43.2191 27.3299L43.2376 27.4439C43.2376 27.4871 43.2531 27.5333 43.2561 27.5764C43.2716 27.7366 43.2808 27.903 43.2808 28.0663C43.2808 28.2296 43.2716 28.4206 43.2716 28.5808Z" fill="#B8B8B8"/>
<path d="M901 31L905.5 27L910 31" stroke="#00D1FF" stroke-width="2" stroke-linecap="round"/>
<path d="M910 36L905.5 40L901 36" stroke="#00D1FF" stroke-width="2" stroke-linecap="round"/>
<defs>
<linearGradient id="paint0_linear_72_53" x1="960" y1="11.8182" x2="1172.43" y2="48.9247" gradientUnits="userSpaceOnUse">
<stop stop-color="#00E0FF"/>
<stop offset="1" stop-color="#FF00B8"/>
</linearGradient>
</defs>
</svg>
