<svg width="255" height="33" viewBox="0 0 255 33" fill="none" xmlns="http://www.w3.org/2000/svg">
<path d="M34 10.5H20.8C20.5 10.6 20.35 10.8 20.35 11.1C20.35 11.2667 20.4 11.4333 20.5 11.6L24.4 13.8C28.4667 16.0667 30.5 19.1333 30.5 23C30.5 25.7667 29.5167 28.1333 27.55 30.1C25.6167 32.0333 23.2667 33 20.5 33H0.5V23H17.2C17.5 22.9 17.65 22.7 17.65 22.4C17.65 22.2333 17.6 22.0667 17.5 21.9L13.6 19.7C9.53333 17.4333 7.5 14.3667 7.5 10.5C7.5 7.73333 8.46667 5.38333 10.4 3.45C12.3667 1.48333 14.7333 0.499998 17.5 0.499998H34V10.5ZM66.5195 33H56.5195V20.5H46.5195V33H36.5195V10.5H33.0195V0.499998H46.5195V13H56.5195V0.499998H66.5195V33ZM99.0391 33H69.0391V10.5H65.5391V0.499998H99.0391V10.5H79.0391V13H94.0391V20.5H79.0391V23H99.0391V33ZM131.559 33H101.559V10.5H98.0586V0.499998H111.559V23H131.559V33ZM155.582 10.5H145.582V33H135.582V10.5H122.082V0.499998H155.582V10.5ZM188.102 33H158.102V10.5H154.602V0.499998H188.102V10.5H168.102V13H183.102V20.5H168.102V23H188.102V33ZM221.621 33H215.121C212.454 33 210.121 32 208.121 30L200.621 22.5V33H190.621V10.5H187.121V0.499998H209.621C212.654 0.499998 215.238 1.58333 217.371 3.75C219.538 5.88333 220.621 8.46667 220.621 11.5C220.621 13.6667 220.021 15.6667 218.821 17.5C217.654 19.3 216.088 20.65 214.121 21.55C214.554 22.5167 215.388 23 216.621 23H221.621V33ZM210.621 11.5C210.621 9.83333 209.621 9 207.621 9H200.621V14H207.621C209.621 14 210.621 13.1667 210.621 11.5ZM254.117 33H224.117V23L238.617 10.5H220.617V0.499998H254.117V10.5L239.617 23H254.117V33Z" fill="white"/>
</svg>
